<?xml version="1.0" encoding="utf-8"?>
<!-- Generator: Adobe Illustrator 17.1.0, SVG Export Plug-In . SVG Version: 6.00 Build 0)  -->
<!DOCTYPE svg PUBLIC "-//W3C//DTD SVG 1.1 Tiny//EN" "http://www.w3.org/Graphics/SVG/1.1/DTD/svg11-tiny.dtd">
<svg xmlns="http://www.w3.org/2000/svg" xmlns:xlink="http://www.w3.org/1999/xlink" version="1.1" baseProfile="tiny" x="0px" y="0px" viewBox="0 0 1600 900" overflow="scroll" xml:space="preserve">
      <metadata>
        <views>
          <view h="993.397339018" padding="0" w="1000">
            <proj id="laea" lat0="49.9701576233" lon0="2.37556359389"/>
            <bbox h="107.99" w="108.82" x="938.56" y="986.19"/>
          </view>
        </views>
      </metadata>
<g id="Layer_5">
	<path id="null" fill="#D6D6D6" stroke="null" d="M131.5,185.5L146.5 186.5 136.5 203.5 13.5 354 232 699 367 894 1072.5 895.5 1524.5 574 1586.5 395.5 1501 359.5 1512 313.5 1471.5 303 1476.5 288 1320 209.5 1313 195 1175.5 151 784.5 86.5 698 99.5 686.5 98 702.5 25.5 395 104 318.5 76.5 251.5 31 223 7 164 149 147.5 150 "/>
</g>

<g id="mc">
	<g id="z111">
		<path id="null" fill="#D80303" stroke="#000000" d="M363,239.5L329 239.5 347.1 183.5 381 183.5 z"/>
	</g>
	<g id="z115">
		<path fill="#D80303" stroke="#000000" stroke-miterlimit="10" d="M455.9,239.5h-34l18.1-56c0,0,29.8,0,31,0c1.8,2,1.2,5,1.2,5    L455.9,239.5z"/>
	</g>
	<g id="z112">
		<path id="null" fill="#D80303" stroke="#000000" d="M381.2,183.5L400.7 183.5 382.5 239.5 363.2 239.5 z"/>
	</g>
	<g id="z114">
		<path id="null" fill="#D80303" stroke="#000000" d="M420,183.5L440 183.5 422 239.5 402 239.5 z"/>
	</g>
	<g id="z113">
		<path id="null" fill="#D80303" stroke="#000000" d="M382.1,239.5L400.4 183.5 419.9 183.5 401.9 239.5 z"/>
	</g>
	<g id="z201">
		<path id="null" fill="#D80303" stroke="#000000" d="M506,239.5L472 239.5 490.1 183.5 524 183.5 z"/>
	</g>
	<g id="z205">
		<path fill="#D80303" stroke="#000000" stroke-miterlimit="10" d="M598.9,239.5h-34l18.1-56c0,0,29.8,0,31,0c1.8,2,1.2,5,1.2,5    L598.9,239.5z"/>
	</g>
	<g id="z202">
		<path id="null" fill="#D80303" stroke="#000000" d="M524.2,183.5L543.7 183.5 525.5 239.5 506.2 239.5 z"/>
	</g>
	<g id="z204">
		<path id="null" fill="#D80303" stroke="#000000" d="M563,183.5L583 183.5 565 239.5 545 239.5 z"/>
	</g>
	<g id="z203">
		<path id="null" fill="#D80303" stroke="#000000" d="M525.1,239.5L543.4 183.5 562.9 183.5 544.9 239.5 z"/>
	</g>
	<g id="z121">
		<path id="null" fill="#D80303" stroke="#000000" d="M329.5,244.5L388.5 244.5 382.2 263.5 323.5 263.5 z"/>
	</g>
	<g id="z122">
		<path id="null" fill="#D80303" stroke="#000000" d="M376.5,281.5L317.5 281.5 323.5 263.5 382.5 263.5 z"/>
	</g>
	<g id="z123">
		<path id="null" fill="#D80303" stroke="#000000" d="M311.5,300.5L317.5 281.5 376.5 281.5 370.2 300.5 z"/>
	</g>
	<g id="z124">
		<path id="null" fill="#D80303" stroke="#000000" d="M305.6,319.4L311.4 300.5 370.4 300.5 363.9 319 z"/>
	</g>
	<g id="z125">
		<path id="null" fill="#D80303" stroke="#000000" d="M298.8,337.5L305 319.2 363.3 318.8 357.1 337.5 z"/>
	</g>
	<g id="z126">
		<path id="null" fill="#D80303" stroke="#000000" d="M291.2,359.5L298.8 337.5 356.8 337.5 350.2 359.5 z"/>
	</g>
	<g id="z131">
		<path id="null" fill="#D80303" stroke="#000000" d="M393.5,244.5L452.5 244.5 446.2 263.5 387.5 263.5 z"/>
	</g>
	<g id="z132">
		<path id="null" fill="#D80303" stroke="#000000" d="M440.5,281.5L381.5 281.5 387.5 263.5 446.5 263.5 z"/>
	</g>
	<g id="z133">
		<path id="null" fill="#D80303" stroke="#000000" d="M375.5,300.5L381.5 281.5 440.5 281.5 434.2 300.5 z"/>
	</g>
	<g id="z134">
		<path id="null" fill="#D80303" stroke="#000000" d="M369.6,319.4L375.4 300.5 434.4 300.5 427.9 319 z"/>
	</g>
	<g id="z135">
		<path id="null" fill="#D80303" stroke="#000000" d="M362.8,337.5L369 319.2 427.3 318.8 421.1 337.5 z"/>
	</g>
	<g id="z136">
		<path id="null" fill="#D80303" stroke="#000000" d="M355.2,359.5L362.8 337.5 420.8 337.5 414.2 359.5 z"/>
	</g>
	<g id="z211">
		<path id="null" fill="#D80303" stroke="#000000" d="M473.5,244.5L532.5 244.5 526.2 263.5 467.5 263.5 z"/>
	</g>
	<g id="z212">
		<path id="null" fill="#D80303" stroke="#000000" d="M520.5,281.5L461.5 281.5 467.5 263.5 526.5 263.5 z"/>
	</g>
	<g id="z213">
		<path id="null" fill="#D80303" stroke="#000000" d="M455.5,300.5L461.5 281.5 520.5 281.5 514.2 300.5 z"/>
	</g>
	<g id="z214">
		<path id="null" fill="#D80303" stroke="#000000" d="M449.6,319.4L455.4 300.5 514.4 300.5 507.9 319 z"/>
	</g>
	<g id="z215">
		<path id="null" fill="#D80303" stroke="#000000" d="M442.8,337.5L449 319.2 507.3 318.8 501.1 337.5 z"/>
	</g>
	<g id="z216">
		<path id="null" fill="#D80303" stroke="#000000" d="M435.2,359.5L442.8 337.5 500.8 337.5 494.2 359.5 z"/>
	</g>
	<g id="z221">
		<path id="null" fill="#D80303" stroke="#000000" d="M537.5,244.5L596.5 244.5 590.2 263.5 531.5 263.5 z"/>
	</g>
	<g id="z222">
		<path id="null" fill="#D80303" stroke="#000000" d="M584.5,281.5L525.5 281.5 531.5 263.5 590.5 263.5 z"/>
	</g>
	<g id="z223">
		<path id="null" fill="#D80303" stroke="#000000" d="M519.5,300.5L525.5 281.5 584.5 281.5 578.2 300.5 z"/>
	</g>
	<g id="z224">
		<path id="null" fill="#D80303" stroke="#000000" d="M513.6,319.4L519.4 300.5 578.4 300.5 571.9 319 z"/>
	</g>
	<g id="z225">
		<path id="null" fill="#D80303" stroke="#000000" d="M506.8,337.5L513 319.2 571.3 318.8 565.1 337.5 z"/>
	</g>
	<g id="z226">
		<path id="null" fill="#D80303" stroke="#000000" d="M499.2,359.5L506.8 337.5 564.8 337.5 558.2 359.5 z"/>
	</g>
	<g id="z146">
		<path id="null" fill="#D80303" stroke="#000000" d="M329.5,478.5L388.5 478.5 382.2 459.5 323.5 459.5 z"/>
	</g>
	<g id="z145">
		<path id="null" fill="#D80303" stroke="#000000" d="M376.5,441.5L317.5 441.5 323.5 459.5 382.5 459.5 z"/>
	</g>
	<g id="z144">
		<path id="null" fill="#D80303" stroke="#000000" d="M311.5,421.5L317.5 441.5 376.5 441.5 370.2 421.5 z"/>
	</g>
	<g id="z143">
		<path id="null" fill="#D80303" stroke="#000000" d="M305.6,402.6L311.4 421.5 370.4 421.5 363.9 403 z"/>
	</g>
	<g id="z142">
		<path id="null" fill="#D80303" stroke="#000000" d="M298.8,384.5L305 403 363.3 403.4 357.1 384.5 z"/>
	</g>
	<g id="z141">
		<path id="null" fill="#D80303" stroke="#000000" d="M291.2,362.5L298.8 384.5 356.8 384.5 350.2 362.5 z"/>
	</g>
	<g id="z156">
		<path id="null" fill="#D80303" stroke="#000000" d="M393.5,478.5L452.5 478.5 446.2 459.5 387.5 459.5 z"/>
	</g>
	<g id="z155">
		<path id="null" fill="#D80303" stroke="#000000" d="M440.5,441.5L381.5 441.5 387.5 459.5 446.5 459.5 z"/>
	</g>
	<g id="z154">
		<path id="null" fill="#D80303" stroke="#000000" d="M375.5,421.5L381.5 441.5 440.5 441.5 434.2 421.5 z"/>
	</g>
	<g id="z153">
		<path id="null" fill="#D80303" stroke="#000000" d="M369.6,402.6L375.4 421.5 434.4 421.5 427.9 403 z"/>
	</g>
	<g id="z152">
		<path id="null" fill="#D80303" stroke="#000000" d="M362.8,384.5L369 403 427.3 403.4 421.1 384.5 z"/>
	</g>
	<g id="z151">
		<path id="null" fill="#D80303" stroke="#000000" d="M355.2,362.5L362.8 384.5 420.8 384.5 414.2 362.5 z"/>
	</g>
	<g id="z236">
		<path id="null" fill="#D80303" stroke="#000000" d="M473.5,478.5L532.5 478.5 526.2 459.5 467.5 459.5 z"/>
	</g>
	<g id="z235">
		<path id="null" fill="#D80303" stroke="#000000" d="M520.5,441.5L461.5 441.5 467.5 459.5 526.5 459.5 z"/>
	</g>
	<g id="z234">
		<path id="null" fill="#D80303" stroke="#000000" d="M455.5,421.5L461.5 441.5 520.5 441.5 514.2 421.5 z"/>
	</g>
	<g id="z233">
		<path id="null" fill="#D80303" stroke="#000000" d="M449.6,402.6L455.4 421.5 514.4 421.5 507.9 403 z"/>
	</g>
	<g id="z232">
		<path id="null" fill="#D80303" stroke="#000000" d="M442.8,384.5L449 403 507.3 403.4 501.1 384.5 z"/>
	</g>
	<g id="z231">
		<path id="null" fill="#D80303" stroke="#000000" d="M435.2,362.5L442.8 384.5 500.8 384.5 494.2 362.5 z"/>
	</g>
	<g id="z246">
		<path id="null" fill="#D80303" stroke="#000000" d="M537.5,478.5L596.5 478.5 590.2 459.5 531.5 459.5 z"/>
	</g>
	<g id="z245">
		<path id="null" fill="#D80303" stroke="#000000" d="M584.5,441.5L525.5 441.5 531.5 459.5 590.5 459.5 z"/>
	</g>
	<g id="z244">
		<path id="null" fill="#D80303" stroke="#000000" d="M519.5,421.5L525.5 441.5 584.5 441.5 578.2 421.5 z"/>
	</g>
	<g id="z243">
		<path id="null" fill="#D80303" stroke="#000000" d="M513.6,402.6L519.4 421.5 578.4 421.5 571.9 403 z"/>
	</g>
	<g id="z242">
		<path id="null" fill="#D80303" stroke="#000000" d="M506.8,384.5L513 403 571.3 403.4 565.1 384.5 z"/>
	</g>
	<g id="z241">
		<path id="null" fill="#D80303" stroke="#000000" d="M499.2,362.5L506.8 384.5 564.8 384.5 558.2 362.5 z"/>
	</g>
	<g id="z306">
		<path id="null" fill="#D80303" stroke="#000000" d="M616.5,478.5L675.5 478.5 669.2 459.5 610.5 459.5 z"/>
	</g>
	<g id="z305">
		<path id="null" fill="#D80303" stroke="#000000" d="M663.5,441.5L604.5 441.5 610.5 459.5 669.5 459.5 z"/>
	</g>
	<g id="z308">
		<path id="null" fill="#D80303" stroke="#000000" d="M628.5,515.5L687.5 515.5 681.2 496.5 622.5 496.5 z"/>
	</g>
	<g id="z307">
		<path id="null" fill="#D80303" stroke="#000000" d="M675.5,478.5L616.5 478.5 622.5 496.5 681.5 496.5 z"/>
	</g>
	<g id="z304">
		<path id="null" fill="#D80303" stroke="#000000" d="M598.5,421.5L604.5 441.5 663.5 441.5 657.2 421.5 z"/>
	</g>
	<g id="z303">
		<path id="null" fill="#D80303" stroke="#000000" d="M592.6,402.6L598.4 421.5 657.4 421.5 650.9 403 z"/>
	</g>
	<g id="z302">
		<path id="null" fill="#D80303" stroke="#000000" d="M585.8,384.5L592 403 650.3 403.4 644.1 384.5 z"/>
	</g>
	<g id="z301">
		<path id="null" fill="#D80303" stroke="#000000" d="M578.2,362.5L585.8 384.5 643.8 384.5 637.2 362.5 z"/>
	</g>
	<g id="z294">
		<path id="null" fill="#D80303" stroke="#000000" d="M616.5,244.5L675.5 244.5 669.2 263.5 610.5 263.5 z"/>
	</g>
	<g id="z295">
		<path id="null" fill="#D80303" stroke="#000000" d="M663.5,281.5L604.5 281.5 610.5 263.5 669.5 263.5 z"/>
	</g>
	<g id="z292">
		<path id="null" fill="#D80303" stroke="#000000" d="M628.5,206.5L687.5 206.5 681.2 225.5 622.5 225.5 z"/>
	</g>
	<g id="z293">
		<path id="null" fill="#D80303" stroke="#000000" d="M675.5,243.5L616.5 243.5 622.5 225.5 681.5 225.5 z"/>
	</g>
	<g id="z296">
		<path id="null" fill="#D80303" stroke="#000000" d="M598.5,300.5L604.5 281.5 663.5 281.5 657.2 300.5 z"/>
	</g>
	<g id="z297">
		<path id="null" fill="#D80303" stroke="#000000" d="M592.6,319.4L598.4 300.5 657.4 300.5 650.9 319 z"/>
	</g>
	<g id="z298">
		<path id="null" fill="#D80303" stroke="#000000" d="M585.8,337.5L592 319.2 650.3 318.8 644.1 337.5 z"/>
	</g>
	<g id="z299">
		<path id="null" fill="#D80303" stroke="#000000" d="M578.2,359.5L585.8 337.5 643.8 337.5 637.2 359.5 z"/>
	</g>
	<g id="z291">
		<path fill="#D80303" stroke="#000000" stroke-miterlimit="10" d="M634.4,186.6c0.8-2.3,2-4.1,4.3-4.1s50.6,0,50.6,0    s5.5,1.5,4.3,6.1c-1.2,4.6-5.8,18.1-5.8,18.1l-59.5,0.1L634.4,186.6z"/>
	</g>
	<g id="z309">
		<path fill="#D80303" stroke="#000000" stroke-miterlimit="10" d="M695.7,540.2l-8.5-24.7h-59c0,0,4.8,16.4,5.9,19.2s3.1,5.6,6,5.6    S695.7,540.2,695.7,540.2z"/>
	</g>
	<g id="z161">
		<path fill="#D80303" stroke="#000000" stroke-miterlimit="10" d="M347.9,539.7c-1.3-0.5-1.7-1.4-2.3-3.1s-17.1-53.1-17.1-53.1    h33.1l18,56.4C379.5,539.9,350.1,539.7,347.9,539.7z"/>
	</g>
	<g id="z162">
		<path id="null" fill="#D80303" stroke="#000000" d="M381.9,483.5L400 539.5 380 539.5 362 483.5 z"/>
	</g>
	<g id="z163">
		<path id="null" fill="#D80303" stroke="#000000" d="M419.7,539.5L400.4 539.5 382.2 483.5 401.4 483.5 z"/>
	</g>
	<g id="z164">
		<path id="null" fill="#D80303" stroke="#000000" d="M420.8,483.5L439.1 539.5 418.9 539.5 400.9 483.4 z"/>
	</g>
	<g id="z165">
		<path fill="#D80303" stroke="#000000" stroke-miterlimit="10" d="M456.3,484.1c0,0,15.2,47,16.3,50c1.1,3-0.8,5.4-1.5,5.4    c-3.9,0-31.7,0-31.7,0l-18.1-55.6L456.3,484.1z"/>
	</g>
	<g id="z251">
		<path fill="#D80303" stroke="#000000" stroke-miterlimit="10" d="M471.5,483.5h33l18,55.6c0,0-30.9,0-32,0    c-0.9-1.1-1.4-2.4-1.9-4.1S473,487.5,471.5,483.5z"/>
	</g>
	<g id="z252">
		<path id="null" fill="#D80303" stroke="#000000" d="M524.6,483.5L542.9 539.8 523.1 539.4 505.1 483.5 z"/>
	</g>
	<g id="z253">
		<path id="null" fill="#D80303" stroke="#000000" d="M544.6,483.5L562.9 539.8 543.1 539.4 525.1 483.5 z"/>
	</g>
	<g id="z254">
		<path id="null" fill="#D80303" stroke="#000000" d="M564.6,483.5L582.9 539.8 563.1 539.4 545.1 483.5 z"/>
	</g>
	<g id="z255">
		<path fill="#D80303" stroke="#000000" stroke-miterlimit="10" d="M599.1,483.9c0,0,15.6,48.4,16.4,50.5s-0.1,4.6-1.4,5.3    c-3.8,0-31.4,0.4-31.4,0.4l-18.4-56.1L599.1,483.9z"/>
	</g>
	<g id="z491">
		<path id="null" fill="#D80303" stroke="#000000" d="M1192.5,244.5L1133.5 244.5 1139.8 263.5 1198.5 263.5 z"/>
	</g>
	<g id="z492">
		<path id="null" fill="#D80303" stroke="#000000" d="M1145.5,281.5L1204.5 281.5 1198.5 263.5 1139.5 263.5 z"/>
	</g>
	<g id="z493">
		<path id="null" fill="#D80303" stroke="#000000" d="M1210.5,300.5L1204.5 281.5 1145.5 281.5 1151.8 300.5 z"/>
	</g>
	<g id="z494">
		<path id="null" fill="#D80303" stroke="#000000" d="M1216.4,319.4L1210.6 300.5 1151.6 300.5 1158.1 319 z"/>
	</g>
	<g id="z495">
		<path id="null" fill="#D80303" stroke="#000000" d="M1223.2,337.5L1217 319.2 1158.7 318.8 1164.9 337.5 z"/>
	</g>
	<g id="z496">
		<path id="null" fill="#D80303" stroke="#000000" d="M1230.8,359.5L1223.2 337.5 1165.2 337.5 1171.8 359.5 z"/>
	</g>
	<g id="z481">
		<path id="null" fill="#D80303" stroke="#000000" d="M1128.5,244.5L1069.5 244.5 1075.8 263.5 1134.5 263.5 z"/>
	</g>
	<g id="z482">
		<path id="null" fill="#D80303" stroke="#000000" d="M1081.5,281.5L1140.5 281.5 1134.5 263.5 1075.5 263.5 z"/>
	</g>
	<g id="z483">
		<path id="null" fill="#D80303" stroke="#000000" d="M1146.5,300.5L1140.5 281.5 1081.5 281.5 1087.8 300.5 z"/>
	</g>
	<g id="z484">
		<path id="null" fill="#D80303" stroke="#000000" d="M1152.4,319.4L1146.6 300.5 1087.6 300.5 1094.1 319 z"/>
	</g>
	<g id="z485">
		<path id="null" fill="#D80303" stroke="#000000" d="M1159.2,337.5L1153 319.2 1094.7 318.8 1100.9 337.5 z"/>
	</g>
	<g id="z486">
		<path id="null" fill="#D80303" stroke="#000000" d="M1166.8,359.5L1159.2 337.5 1101.2 337.5 1107.8 359.5 z"/>
	</g>
	<g id="z401">
		<path id="null" fill="#D80303" stroke="#000000" d="M1049.5,244.5L990.5 244.5 996.8 263.5 1055.5 263.5 z"/>
	</g>
	<g id="z402">
		<path id="null" fill="#D80303" stroke="#000000" d="M1002.5,281.5L1061.5 281.5 1055.5 263.5 996.5 263.5 z"/>
	</g>
	<g id="z403">
		<path id="null" fill="#D80303" stroke="#000000" d="M1067.5,300.5L1061.5 281.5 1002.5 281.5 1008.8 300.5 z"/>
	</g>
	<g id="z404">
		<path id="null" fill="#D80303" stroke="#000000" d="M1073.4,319.4L1067.6 300.5 1008.6 300.5 1015.1 319 z"/>
	</g>
	<g id="z405">
		<path id="null" fill="#D80303" stroke="#000000" d="M1079.2,337.5L1073 319.2 1014.7 318.8 1020.9 337.5 z"/>
	</g>
	<g id="z406">
		<path id="null" fill="#D80303" stroke="#000000" d="M1086.8,359.5L1079.2 337.5 1021.2 337.5 1027.8 359.5 z"/>
	</g>
	<g id="z391">
		<path id="null" fill="#D80303" stroke="#000000" d="M985.5,244.5L926.5 244.5 932.8 263.5 991.5 263.5 z"/>
	</g>
	<g id="z392">
		<path id="null" fill="#D80303" stroke="#000000" d="M938.5,281.5L997.5 281.5 991.5 263.5 932.5 263.5 z"/>
	</g>
	<g id="z393">
		<path id="null" fill="#D80303" stroke="#000000" d="M1003.5,300.5L997.5 281.5 938.5 281.5 944.8 300.5 z"/>
	</g>
	<g id="z394">
		<path id="null" fill="#D80303" stroke="#000000" d="M1009.4,319.4L1003.6 300.5 944.6 300.5 951.1 319 z"/>
	</g>
	<g id="z395">
		<path id="null" fill="#D80303" stroke="#000000" d="M1016.2,337.5L1010 319.2 951.7 318.8 957.9 337.5 z"/>
	</g>
	<g id="z396">
		<path id="null" fill="#D80303" stroke="#000000" d="M1023.8,359.5L1016.2 337.5 958.2 337.5 964.8 359.5 z"/>
	</g>
	<g id="z516">
		<path id="null" fill="#D80303" stroke="#000000" d="M1193.5,478.5L1134.5 478.5 1140.8 459.5 1199.5 459.5 z"/>
	</g>
	<g id="z515">
		<path id="null" fill="#D80303" stroke="#000000" d="M1146.5,441.5L1205.5 441.5 1199.5 459.5 1140.5 459.5 z"/>
	</g>
	<g id="z514">
		<path id="null" fill="#D80303" stroke="#000000" d="M1211.5,421.5L1205.5 441.5 1146.5 441.5 1152.8 421.5 z"/>
	</g>
	<g id="z513">
		<path id="null" fill="#D80303" stroke="#000000" d="M1217.4,402.6L1211.6 421.5 1152.6 421.5 1159.1 403 z"/>
	</g>
	<g id="z512">
		<path id="null" fill="#D80303" stroke="#000000" d="M1224.2,384.5L1218 403 1159.7 403.4 1165.9 384.5 z"/>
	</g>
	<g id="z511">
		<path id="null" fill="#D80303" stroke="#000000" d="M1231.8,362.5L1224.2 384.5 1166.2 384.5 1172.8 362.5 z"/>
	</g>
	<g id="z506">
		<path id="null" fill="#D80303" stroke="#000000" d="M1129.5,478.5L1070.5 478.5 1076.8 459.5 1135.5 459.5 z"/>
	</g>
	<g id="z505">
		<path id="null" fill="#D80303" stroke="#000000" d="M1082.5,441.5L1141.5 441.5 1135.5 459.5 1076.5 459.5 z"/>
	</g>
	<g id="z504">
		<path id="null" fill="#D80303" stroke="#000000" d="M1147.5,421.5L1141.5 441.5 1082.5 441.5 1088.8 421.5 z"/>
	</g>
	<g id="z503">
		<path id="null" fill="#D80303" stroke="#000000" d="M1153.4,402.6L1147.6 421.5 1088.6 421.5 1095.1 403 z"/>
	</g>
	<g id="z502">
		<path id="null" fill="#D80303" stroke="#000000" d="M1160.2,384.5L1154 403 1095.7 403.4 1101.9 384.5 z"/>
	</g>
	<g id="z501">
		<path id="null" fill="#D80303" stroke="#000000" d="M1167.8,362.5L1160.2 384.5 1102.2 384.5 1108.8 362.5 z"/>
	</g>
	<g id="z426">
		<path id="null" fill="#D80303" stroke="#000000" d="M1049.5,478.5L990.5 478.5 996.8 459.5 1055.5 459.5 z"/>
	</g>
	<g id="z425">
		<path id="null" fill="#D80303" stroke="#000000" d="M1002.5,441.5L1061.5 441.5 1055.5 459.5 996.5 459.5 z"/>
	</g>
	<g id="z424">
		<path id="null" fill="#D80303" stroke="#000000" d="M1067.5,421.5L1061.5 441.5 1002.5 441.5 1008.8 421.5 z"/>
	</g>
	<g id="z423">
		<path id="null" fill="#D80303" stroke="#000000" d="M1073.4,402.6L1067.6 421.5 1008.6 421.5 1015.1 403 z"/>
	</g>
	<g id="z422">
		<path id="null" fill="#D80303" stroke="#000000" d="M1080.2,384.5L1074 403 1015.7 403.4 1021.9 384.5 z"/>
	</g>
	<g id="z421">
		<path id="null" fill="#D80303" stroke="#000000" d="M1087.8,362.5L1080.2 384.5 1022.2 384.5 1028.8 362.5 z"/>
	</g>
	<g id="z416">
		<path id="null" fill="#D80303" stroke="#000000" d="M985.5,478.5L926.5 478.5 932.8 459.5 991.5 459.5 z"/>
	</g>
	<g id="z415">
		<path id="null" fill="#D80303" stroke="#000000" d="M938.5,441.5L997.5 441.5 991.5 459.5 932.5 459.5 z"/>
	</g>
	<g id="z414">
		<path id="null" fill="#D80303" stroke="#000000" d="M1003.5,421.5L997.5 441.5 938.5 441.5 944.8 421.5 z"/>
	</g>
	<g id="z413">
		<path id="null" fill="#D80303" stroke="#000000" d="M1009.4,402.6L1003.6 421.5 944.6 421.5 951.1 403 z"/>
	</g>
	<g id="z412">
		<path id="null" fill="#D80303" stroke="#000000" d="M1016.2,384.5L1010 403 951.7 403.4 957.9 384.5 z"/>
	</g>
	<g id="z411">
		<path id="null" fill="#D80303" stroke="#000000" d="M1023.8,362.5L1016.2 384.5 958.2 384.5 964.8 362.5 z"/>
	</g>
	<g id="z376">
		<path id="null" fill="#D80303" stroke="#000000" d="M905.8,478.5L846.2 478.5 852.5 459.5 911.8 459.5 z"/>
	</g>
	<g id="z375">
		<path id="null" fill="#D80303" stroke="#000000" d="M858.2,441.5L917.8 441.5 911.8 459.5 852.2 459.5 z"/>
	</g>
	<g id="z378">
		<path id="null" fill="#D80303" stroke="#000000" d="M893.8,515.5L834.2 515.5 840.5 496.5 899.8 496.5 z"/>
	</g>
	<g id="z377">
		<path id="null" fill="#D80303" stroke="#000000" d="M846.2,478.5L905.8 478.5 899.8 496.5 840.2 496.5 z"/>
	</g>
	<g id="z374">
		<path id="null" fill="#D80303" stroke="#000000" d="M923.8,421.5L917.8 441.5 858.2 441.5 864.5 421.5 z"/>
	</g>
	<g id="z373">
		<path id="null" fill="#D80303" stroke="#000000" d="M929.7,402.6L923.9 421.5 864.3 421.5 870.9 403 z"/>
	</g>
	<g id="z372">
		<path id="null" fill="#D80303" stroke="#000000" d="M935.6,384.5L929.3 403 870.4 403.4 876.6 384.5 z"/>
	</g>
	<g id="z371">
		<path id="null" fill="#D80303" stroke="#000000" d="M944.1,362.5L936.5 384.5 877.9 384.5 884.6 362.5 z"/>
	</g>
	<g id="z364">
		<path id="null" fill="#D80303" stroke="#000000" d="M905.5,244.5L846.5 244.5 852.8 263.5 911.5 263.5 z"/>
	</g>
	<g id="z365">
		<path id="null" fill="#D80303" stroke="#000000" d="M858.5,281.5L917.5 281.5 911.5 263.5 852.5 263.5 z"/>
	</g>
	<g id="z362">
		<path id="null" fill="#D80303" stroke="#000000" d="M893.5,206.5L834.5 206.5 840.8 225.5 899.5 225.5 z"/>
	</g>
	<g id="z363">
		<path id="null" fill="#D80303" stroke="#000000" d="M846.5,243.5L905.5 243.5 899.5 225.5 840.5 225.5 z"/>
	</g>
	<g id="z366">
		<path id="null" fill="#D80303" stroke="#000000" d="M923.5,300.5L917.5 281.5 858.5 281.5 864.8 300.5 z"/>
	</g>
	<g id="z367">
		<path id="null" fill="#D80303" stroke="#000000" d="M929.4,319.4L923.6 300.5 864.6 300.5 871.1 319 z"/>
	</g>
	<g id="z368">
		<path id="null" fill="#D80303" stroke="#000000" d="M936.2,337.5L930 319.2 871.7 318.8 877.9 337.5 z"/>
	</g>
	<g id="z369">
		<path id="null" fill="#D80303" stroke="#000000" d="M943.8,359.5L936.2 337.5 878.2 337.5 884.8 359.5 z"/>
	</g>
	<g id="z361">
		<path fill="#D80303" stroke="#000000" stroke-miterlimit="10" d="M887.6,186.6c-0.8-2.3-2-4.1-4.3-4.1s-50.6,0-50.6,0    s-5.5,1.5-4.3,6.1c1.2,4.6,5.8,18.1,5.8,18.1l59.5,0.1L887.6,186.6z"/>
	</g>
	<g id="z379">
		<path fill="#D80303" stroke="#000000" stroke-miterlimit="10" d="M825.9,540.2l8.6-24.7h59.6c0,0-4.8,16.4-5.9,19.2    c-1.1,2.8-3.2,5.6-6.1,5.6C879.2,540.3,825.9,540.2,825.9,540.2z"/>
	</g>
	<g id="z525">
		<path fill="#D80303" stroke="#000000" stroke-miterlimit="10" d="M1174.1,539.7c1.3-0.5,1.7-1.4,2.3-3.1s17.1-53.1,17.1-53.1    h-33.1l-18,56.4C1142.5,539.9,1171.9,539.7,1174.1,539.7z"/>
	</g>
	<g id="z524">
		<path id="null" fill="#D80303" stroke="#000000" d="M1141.1,483.5L1123 539.5 1143 539.5 1161 483.5 z"/>
	</g>
	<g id="z523">
		<path id="null" fill="#D80303" stroke="#000000" d="M1103.3,539.5L1122.6 539.5 1140.8 483.5 1121.6 483.5 z"/>
	</g>
	<g id="z522">
		<path id="null" fill="#D80303" stroke="#000000" d="M1102.2,483.5L1083.9 539.5 1104.1 539.5 1122.1 483.4 z"/>
	</g>
	<g id="z521">
		<path fill="#D80303" stroke="#000000" stroke-miterlimit="10" d="M1066.7,484.1c0,0-15.2,47-16.3,50c-1.1,3,0.8,5.4,1.5,5.4    c3.9,0,31.7,0,31.7,0l18.1-55.6L1066.7,484.1z"/>
	</g>
	<g id="z435">
		<path fill="#D80303" stroke="#000000" stroke-miterlimit="10" d="M1050.5,483.5h-33l-18,55.6c0,0,30.9,0,32,0    c0.9-1.1,1.4-2.4,1.9-4.1S1049,487.5,1050.5,483.5z"/>
	</g>
	<g id="z434">
		<path id="null" fill="#D80303" stroke="#000000" d="M998.4,483.5L980.1 539.8 999.9 539.4 1017.9 483.5 z"/>
	</g>
	<g id="z433">
		<path id="null" fill="#D80303" stroke="#000000" d="M978.4,483.5L960.1 539.8 979.9 539.4 997.9 483.5 z"/>
	</g>
	<g id="z432">
		<path id="null" fill="#D80303" stroke="#000000" d="M958.4,483.5L940.1 539.8 959.9 539.4 977.9 483.5 z"/>
	</g>
	<g id="z431">
		<path fill="#D80303" stroke="#000000" stroke-miterlimit="10" d="M923.9,483.9c0,0-15.6,48.4-16.4,50.5s0.1,4.6,1.4,5.3    c3.8,0,31.4,0.4,31.4,0.4l18.4-56.1L923.9,483.9z"/>
	</g>
	<g id="z606">
		<path id="null" fill="#D80303" stroke="#000000" d="M1370.4,363.5L1352.4 418.8 1331.6 418.7 1349.2 363.5 z"/>
	</g>
	<g id="z605">
		<path id="null" fill="#D80303" stroke="#000000" d="M1349.5,363.6L1329.5 363.1 1312.5 418.6 1332 418.9 z"/>
	</g>
	<g id="z604">
		<path id="null" fill="#D80303" stroke="#000000" d="M1329.5,363.6L1309.5 363 1292.5 418.8 1312 419 z"/>
	</g>
	<g id="z603">
		<path id="null" fill="#D80303" stroke="#000000" d="M1310.5,362.5L1290.5 362.5 1273.5 418.6 1293 418.7 z"/>
	</g>
	<g id="z602">
		<path id="null" fill="#D80303" stroke="#000000" d="M1290.4,362.5L1271.4 362.5 1253.6 417.9 1273.2 418.2 z"/>
	</g>
	<g id="z601">
		<path fill="#D80303" stroke="#000000" stroke-miterlimit="10" d="M1253.4,417.8c0,0-3.9,0-5.6,0s-11.4-6.3-9-13.8    c2.4-7.6,10.4-31,11.8-34.8s5.4-7,8.3-7s12.6-0.1,12.6-0.1L1253.4,417.8z"/>
	</g>
	<g id="z611">
		<path id="null" fill="#D80303" stroke="#000000" d="M1362.1,418.8L1382 418.6 1399.9 363.3 1380.3 363.6 z"/>
	</g>
	<g id="z612">
		<path id="null" fill="#D80303" stroke="#000000" d="M1420.3,363.2L1402.4 419 1381.7 418.4 1399.6 363 z"/>
	</g>
	<g id="z613">
		<path id="null" fill="#D80303" stroke="#000000" d="M1421.7,418.9L1402.2 418.8 1420.1 363.1 1439.8 363.4 z"/>
	</g>
	<g id="z614">
		<path id="null" fill="#D80303" stroke="#000000" d="M1459.8,364.4L1441.7 419.6 1422.2 419.7 1440.3 364.2 z"/>
	</g>
	<g id="z615">
		<path id="null" fill="#D80303" stroke="#000000" d="M1461.1,419.8L1441.1 419.5 1459.3 364.3 1478.9 364.5 z"/>
	</g>
	<g id="z616">
		<path id="null" fill="#D80303" stroke="#000000" d="M1480.7,419.8L1461.2 419.6 1478.9 364.4 1498.8 364.3 z"/>
	</g>
	<g id="z617">
		<path id="null" fill="#D80303" stroke="#000000" d="M1501.4,419.5L1481.4 419.5 1499.7 364.3 1511 364.2 1518.7 367.5 z"/>
	</g>
	<g id="z625">
		<path fill="#D80303" stroke="#000000" stroke-miterlimit="10" d="M1194,556.7c-3,0-5.7-2.6-4.9-5.1s8.7-26.1,8.7-26.1h59    l-10.1,31.3L1194,556.7z"/>
	</g>
	<g id="z624">
		<path id="null" fill="#D80303" stroke="#000000" d="M1204.5,507.5L1263.5 507.5 1257.5 525.5 1198.5 525.5 z"/>
	</g>
	<g id="z623">
		<path id="null" fill="#D80303" stroke="#000000" d="M1210.6,488.5L1269.6 488.4 1263.4 507.5 1204.4 507.5 z"/>
	</g>
	<g id="z622">
		<path id="null" fill="#D80303" stroke="#000000" d="M1216.4,469.5L1275.4 469.5 1269.6 488.4 1210.6 488.5 z"/>
	</g>
	<g id="z621">
		<path fill="#D80303" stroke="#000000" stroke-miterlimit="10" d="M1284.5,439.4l-10,30.1h-59c0,0,8.3-24.7,8.9-26.8    c0.6-2.1,3.3-3.5,5.1-3.5S1284.5,439.4,1284.5,439.4z"/>
	</g>
	<g id="z321">
		<path fill="#D80303" stroke="#000000" stroke-miterlimit="10" d="M721.5,539.5h-18.8c0,0-22.9-68.9-23.7-71.8s0.9-4.2,2.4-4.2    s40.1,0,40.1,0V539.5z"/>
	</g>
	<g id="z322">
		<rect x="721.5" y="463.5" fill="#D80303" stroke="#000000" stroke-miterlimit="10" width="19" height="76"/>
	</g>
	<g id="z323">
		<rect x="740.5" y="463.5" fill="#D80303" stroke="#000000" stroke-miterlimit="10" width="20" height="76"/>
	</g>
	<g id="z324">
		<rect x="760.5" y="463.5" fill="#D80303" stroke="#000000" stroke-miterlimit="10" width="20" height="76"/>
	</g>
	<g id="z325">
		<rect x="780.5" y="463.5" fill="#D80303" stroke="#000000" stroke-miterlimit="10" width="19" height="76"/>
	</g>
	<g id="z326">
		<path fill="#D80303" stroke="#000000" stroke-miterlimit="10" d="M819.5,539.9l-20,0.1v-76.5h40.4c0,0,3.8,0.7,2.3,5.1    S819.5,539.9,819.5,539.9z"/>
	</g>
	<g id="z171">
		<path fill="#D80303" stroke="#000000" stroke-miterlimit="10" d="M406.9,616.5h-34.4c0,0-16.3-48.7-17.1-51s-0.7-4,0.3-5    c2.9,0,32.8,0,32.8,0L406.9,616.5z"/>
	</g>
	<g id="z172">
		<path id="null" fill="#D80303" stroke="#000000" d="M406,616.5L426 616.5 408.2 560.5 388 560.5 z"/>
	</g>
	<g id="z173">
		<path id="null" fill="#D80303" stroke="#000000" d="M427.8,561.1L446 616.9 425.9 617 408 561 z"/>
	</g>
	<g id="z174">
		<path id="null" fill="#D80303" stroke="#000000" d="M465.9,616.8L446.3 616.9 428.1 561.1 447.9 561.2 z"/>
	</g>
	<g id="z175">
		<path id="null" fill="#D80303" stroke="#000000" d="M494.7,616.5L465.7 616.5 447.3 560.9 476.6 560.7 z"/>
	</g>
	<g id="z261">
		<path fill="#D80303" stroke="#000000" stroke-miterlimit="10" d="M515.9,616.5h33l-18.3-55.6c0,0-29.9,0.1-31.3,0.1    c-0.6,1.1-0.8,2.8-0.2,4.6S515.9,616.5,515.9,616.5z"/>
	</g>
	<g id="z262">
		<path id="null" fill="#D80303" stroke="#000000" d="M569.1,616.5L549.1 616.5 530.9 560.5 551.1 560.5 z"/>
	</g>
	<g id="z263">
		<path id="null" fill="#D80303" stroke="#000000" d="M570.3,560.2L588.7 616.5 569.2 616.5 551.2 560.4 z"/>
	</g>
	<g id="z264">
		<path id="null" fill="#D80303" stroke="#000000" d="M608,616L588.5 616 570 560 589.7 560.1 z"/>
	</g>
	<g id="z265">
		<path id="null" fill="#D80303" stroke="#000000" d="M638.7,616L607.5 616.2 589.3 560.5 620.6 560.5 z"/>
	</g>
	<g id="z181">
		<path id="null" fill="#D80303" stroke="#000000" d="M432.5,620.6L440.7 645.1 381.6 645.4 373.3 620.7 z"/>
	</g>
	<g id="z182">
		<path id="null" fill="#D80303" stroke="#000000" d="M446.4,663.5L387.4 663.5 381.6 644.8 440.7 644.6 z"/>
	</g>
	<g id="z183">
		<path id="null" fill="#D80303" stroke="#000000" d="M452.6,682.3L393.1 682.5 387.4 663.8 446.1 663.5 z"/>
	</g>
	<g id="z184">
		<path id="null" fill="#D80303" stroke="#000000" d="M458.3,700.5L399.3 700.5 393.7 682.3 452.8 682.2 z"/>
	</g>
	<g id="z185">
		<path fill="#D80303" stroke="#000000" stroke-miterlimit="10" d="M468.7,730.8l-56.4,0c0,0-3-0.1-4.3-3.5s-8.7-26.8-8.7-26.8h59.1    L468.7,730.8z"/>
	</g>
	<g id="z195">
		<path fill="#D80303" stroke="#000000" stroke-miterlimit="10" d="M472.5,730.5h52c0,0,6.9-1.4,4.8-7.6s-7.8-23.4-7.8-23.4h-58.9    L472.5,730.5z"/>
	</g>
	<g id="z194">
		<path id="null" fill="#D80303" stroke="#000000" d="M456.5,680.5L515.5 680.5 521.5 699.4 462.6 699.8 z"/>
	</g>
	<g id="z193">
		<path id="null" fill="#D80303" stroke="#000000" d="M509.4,661.6L515.5 680.4 456.8 680.3 450.5 661.7 z"/>
	</g>
	<g id="z192">
		<path id="null" fill="#D80303" stroke="#000000" d="M444.6,643.5L503.6 643.5 509.4 662.1 450.5 662.1 z"/>
	</g>
	<g id="z191">
		<path id="null" fill="#D80303" stroke="#000000" d="M437.5,620.5L496.5 620.5 504.5 643.4 445.5 643.7 z"/>
	</g>
	<g id="z271">
		<path id="null" fill="#D80303" stroke="#000000" d="M575.3,620.6L583.5 645.1 524.7 645.4 516.5 620.7 z"/>
	</g>
	<g id="z272">
		<path id="null" fill="#D80303" stroke="#000000" d="M589.3,663.5L530.6 663.5 524.7 644.8 583.6 644.6 z"/>
	</g>
	<g id="z273">
		<path id="null" fill="#D80303" stroke="#000000" d="M596.4,682.3L537.2 682.5 531.6 663.8 589.9 663.5 z"/>
	</g>
	<g id="z274">
		<path id="null" fill="#D80303" stroke="#000000" d="M601.2,700.5L542.5 700.5 536.8 682.3 595.7 682.2 z"/>
	</g>
	<g id="z275">
		<path fill="#D80303" stroke="#000000" stroke-miterlimit="10" d="M611.5,730.8l-56.1,0c0,0-3-0.1-4.3-3.5    c-1.3-3.4-8.6-26.8-8.6-26.8h58.8L611.5,730.8z"/>
	</g>
	<g id="z285">
		<path fill="#D80303" stroke="#000000" stroke-miterlimit="10" d="M616.6,730.5h51.8c0,0,6.9-1.4,4.7-7.6    c-2.2-6.3-7.8-23.4-7.8-23.4h-58.6L616.6,730.5z"/>
	</g>
	<g id="z284">
		<path id="null" fill="#D80303" stroke="#000000" d="M600.7,680.5L659.4 680.5 665.3 699.4 606.8 699.8 z"/>
	</g>
	<g id="z283">
		<path id="null" fill="#D80303" stroke="#000000" d="M653.3,661.6L659.4 680.4 600.9 680.3 594.6 661.7 z"/>
	</g>
	<g id="z282">
		<path id="null" fill="#D80303" stroke="#000000" d="M588.8,643.5L647.5 643.5 653.2 662.1 594.6 662.1 z"/>
	</g>
	<g id="z281">
		<path id="null" fill="#D80303" stroke="#000000" d="M580.7,620.5L639.4 620.5 647.3 643.4 588.6 643.7 z"/>
	</g>
	<g id="z535">
		<path fill="#D80303" stroke="#000000" stroke-miterlimit="10" d="M1113.1,616.5h34.4c0,0,16.3-48.7,17.1-51s0.7-4-0.3-5    c-2.9,0-32.8,0-32.8,0L1113.1,616.5z"/>
	</g>
	<g id="z534">
		<path id="null" fill="#D80303" stroke="#000000" d="M1114,616.5L1094 616.5 1111.8 560.5 1132 560.5 z"/>
	</g>
	<g id="z533">
		<path id="null" fill="#D80303" stroke="#000000" d="M1092.2,561.1L1074 616.9 1094.1 617 1112 561 z"/>
	</g>
	<g id="z532">
		<path id="null" fill="#D80303" stroke="#000000" d="M1054.1,616.8L1073.7 616.9 1091.9 561.1 1072.1 561.2 z"/>
	</g>
	<g id="z531">
		<path id="null" fill="#D80303" stroke="#000000" d="M1024.3,616.5L1053.3 616.5 1071.7 560.9 1042.4 560.7 z"/>
	</g>
	<g id="z445">
		<path fill="#D80303" stroke="#000000" stroke-miterlimit="10" d="M1004.1,616.5h-33l18.3-55.6c0,0,29.9,0.1,31.3,0.1    c0.6,1.1,0.8,2.8,0.2,4.6S1004.1,616.5,1004.1,616.5z"/>
	</g>
	<g id="z444">
		<path id="null" fill="#D80303" stroke="#000000" d="M950.9,616.5L970.9 616.5 989.1 560.5 968.9 560.5 z"/>
	</g>
	<g id="z443">
		<path id="null" fill="#D80303" stroke="#000000" d="M949.7,560.2L931.3 616.5 950.8 616.5 968.8 560.4 z"/>
	</g>
	<g id="z442">
		<path id="null" fill="#D80303" stroke="#000000" d="M912,616L931.5 616 950 560 930.3 560.1 z"/>
	</g>
	<g id="z441">
		<path id="null" fill="#D80303" stroke="#000000" d="M881.3,616L912.5 616.2 930.7 560.5 899.4 560.5 z"/>
	</g>
	<g id="z551">
		<path id="null" fill="#D80303" stroke="#000000" d="M1087.5,620.6L1079.3 645.1 1138.4 645.4 1146.7 620.7 z"/>
	</g>
	<g id="z552">
		<path id="null" fill="#D80303" stroke="#000000" d="M1073.6,663.5L1132.6 663.5 1138.4 644.8 1079.3 644.6 z"/>
	</g>
	<g id="z553">
		<path id="null" fill="#D80303" stroke="#000000" d="M1067.4,682.3L1126.9 682.5 1132.6 663.8 1073.9 663.5 z"/>
	</g>
	<g id="z554">
		<path id="null" fill="#D80303" stroke="#000000" d="M1061.7,700.5L1120.7 700.5 1126.3 682.3 1067.2 682.2 z"/>
	</g>
	<g id="z555">
		<path fill="#D80303" stroke="#000000" stroke-miterlimit="10" d="M1051.3,730.8l56.4,0c0,0,3-0.1,4.3-3.5    c1.3-3.4,8.7-26.8,8.7-26.8h-59.1L1051.3,730.8z"/>
	</g>
	<g id="z545">
		<path fill="#D80303" stroke="#000000" stroke-miterlimit="10" d="M1046.5,730.5h-52c0,0-6.9-1.4-4.8-7.6s7.8-23.4,7.8-23.4h58.9    L1046.5,730.5z"/>
	</g>
	<g id="z544">
		<path id="null" fill="#D80303" stroke="#000000" d="M1062.5,680.5L1003.5 680.5 997.5 699.4 1056.4 699.8 z"/>
	</g>
	<g id="z543">
		<path id="null" fill="#D80303" stroke="#000000" d="M1009.6,661.6L1003.5 680.4 1062.2 680.3 1068.5 661.7 z"/>
	</g>
	<g id="z542">
		<path id="null" fill="#D80303" stroke="#000000" d="M1074.4,643.5L1015.4 643.5 1009.6 662.1 1068.5 662.1 z"/>
	</g>
	<g id="z541">
		<path id="null" fill="#D80303" stroke="#000000" d="M1082.5,620.5L1023.5 620.5 1015.5 643.4 1074.5 643.7 z"/>
	</g>
	<g id="z461">
		<path id="null" fill="#D80303" stroke="#000000" d="M943.7,620.6L935.5 645.1 994.3 645.4 1002.5 620.7 z"/>
	</g>
	<g id="z462">
		<path id="null" fill="#D80303" stroke="#000000" d="M929.7,663.5L988.4 663.5 994.3 644.8 935.4 644.6 z"/>
	</g>
	<g id="z463">
		<path id="null" fill="#D80303" stroke="#000000" d="M923.6,682.3L982.8 682.5 988.4 663.8 930.1 663.5 z"/>
	</g>
	<g id="z464">
		<path id="null" fill="#D80303" stroke="#000000" d="M917.8,700.5L976.5 700.5 982.2 682.3 923.3 682.2 z"/>
	</g>
	<g id="z465">
		<path fill="#D80303" stroke="#000000" stroke-miterlimit="10" d="M907.5,730.8l56.1,0c0,0,3-0.1,4.3-3.5    c1.3-3.4,8.6-26.8,8.6-26.8h-58.8L907.5,730.8z"/>
	</g>
	<g id="z455">
		<path fill="#D80303" stroke="#000000" stroke-miterlimit="10" d="M903.4,730.5h-51.8c0,0-6.9-1.4-4.7-7.6    c2.2-6.3,7.8-23.4,7.8-23.4h58.6L903.4,730.5z"/>
	</g>
	<g id="z454">
		<path id="null" fill="#D80303" stroke="#000000" d="M919.3,680.5L860.6 680.5 854.7 699.4 913.2 699.8 z"/>
	</g>
	<g id="z453">
		<path id="null" fill="#D80303" stroke="#000000" d="M866.7,661.6L860.6 680.4 919.1 680.3 925.4 661.7 z"/>
	</g>
	<g id="z452">
		<path id="null" fill="#D80303" stroke="#000000" d="M931.2,643.5L872.5 643.5 866.8 662.1 925.4 662.1 z"/>
	</g>
	<g id="z451">
		<path id="null" fill="#D80303" stroke="#000000" d="M939.3,620.5L880.6 620.5 872.7 643.4 931.4 643.7 z"/>
	</g>
	<g id="z315">
		<path id="null" fill="#D80303" stroke="#000000" d="M760.5,608.3L760.5 615.5 743.2 615.5 725.5 560.2 745.2 560.1 z"/>
	</g>
	<g id="z314">
		<path id="null" fill="#D80303" stroke="#000000" d="M723.6,615.5L742.6 615.5 725 560.1 705.4 560.2 z"/>
	</g>
	<g id="z313">
		<path id="null" fill="#D80303" stroke="#000000" d="M704,615.6L686 560.2 705.7 560.5 724 615.8 z"/>
	</g>
	<g id="z312">
		<path id="null" fill="#D80303" stroke="#000000" d="M666.2,559.1L685.8 559.4 703.8 614.9 684.2 614.7 z"/>
	</g>
	<g id="z311">
		<path fill="#D80303" stroke="#000000" stroke-miterlimit="10" d="M661.6,614.8l23.3,0.3l-18.3-55.6h-18.3c0,0-4.5,0.1-3.3,4.4    C646.2,568.2,661.6,614.8,661.6,614.8z"/>
	</g>
	<g id="z341">
		<path id="null" fill="#D80303" stroke="#000000" d="M729,644.5L671 644.5 663 620.5 721 620.5 z"/>
	</g>
	<g id="z342">
		<path id="null" fill="#D80303" stroke="#000000" d="M676.9,663.5L670.8 644.5 728.8 644.5 735.2 663.3 z"/>
	</g>
	<g id="z343">
		<path id="null" fill="#D80303" stroke="#000000" d="M683.5,682.5L742.5 682.5 735.8 663.5 677.5 663.5 z"/>
	</g>
	<g id="z344">
		<path id="null" fill="#D80303" stroke="#000000" d="M748.5,700.5L689.5 700.5 683.5 682.5 742.5 682.5 z"/>
	</g>
	<g id="z345">
		<path fill="#D80303" stroke="#000000" stroke-miterlimit="10" d="M757,729.5h-56c0,0-2.7-0.4-3.7-3.3s-8.3-25.8-8.3-25.8h59    L757,729.5z"/>
	</g>
	<g id="z331">
		<path id="null" fill="#D80303" stroke="#000000" d="M761.5,608.3L761.5 615.5 778.8 615.5 796.5 560.2 776.8 560.1 z"/>
	</g>
	<g id="z332">
		<path id="null" fill="#D80303" stroke="#000000" d="M798.4,615.5L779.4 615.5 797 560.1 816.6 560.2 z"/>
	</g>
	<g id="z333">
		<path id="null" fill="#D80303" stroke="#000000" d="M818,615.6L836 560.2 816.3 560.5 798 615.8 z"/>
	</g>
	<g id="z334">
		<path id="null" fill="#D80303" stroke="#000000" d="M855.8,559.1L836.2 559.4 818.2 614.9 837.8 614.7 z"/>
	</g>
	<g id="z335">
		<path fill="#D80303" stroke="#000000" stroke-miterlimit="10" d="M858.3,614.9l-21.2,0.2l18.3-55.6h18.3c0,0,2,0,3,1.3    C875.8,563.2,858.3,614.9,858.3,614.9z"/>
	</g>
	<g id="z351">
		<path id="null" fill="#D80303" stroke="#000000" d="M793,644.5L851 644.5 859 620.5 801 620.5 z"/>
	</g>
	<g id="z352">
		<path id="null" fill="#D80303" stroke="#000000" d="M845.1,663.5L851.2 644.5 793.2 644.5 786.8 663.3 z"/>
	</g>
	<g id="z353">
		<path id="null" fill="#D80303" stroke="#000000" d="M838.5,682.5L779.5 682.5 786.2 663.5 844.5 663.5 z"/>
	</g>
	<g id="z354">
		<path id="null" fill="#D80303" stroke="#000000" d="M773.5,700.5L832.5 700.5 838.5 682.5 779.5 682.5 z"/>
	</g>
	<g id="z355">
		<path fill="#D80303" stroke="#000000" stroke-miterlimit="10" d="M765,729.5h56c0,0,2.7-0.4,3.7-3.3s8.3-25.8,8.3-25.8h-59    L765,729.5z"/>
	</g>
	<g id="z631">
		<path id="null" fill="#D80303" stroke="#000000" d="M1291.6,496L1309.7 439.5 1290.2 439.5 1272.2 495.9 z"/>
	</g>
	<g id="z632">
		<path id="null" fill="#D80303" stroke="#000000" d="M1330.3,440.2L1312.3 496.2 1291.7 496.1 1309.7 439.8 z"/>
	</g>
	<g id="z633">
		<path id="null" fill="#D80303" stroke="#000000" d="M1349.6,439.9L1331.8 495.8 1312.4 496.1 1330.4 440.1 z"/>
	</g>
	<g id="z634">
		<path id="null" fill="#D80303" stroke="#000000" d="M1368.7,439.5L1350.8 495.9 1331.3 495.5 1349.1 439.5 z"/>
	</g>
	<g id="z635">
		<path id="null" fill="#D80303" stroke="#000000" d="M1388.6,440L1370.9 496 1351.4 496.1 1369.3 439.9 z"/>
	</g>
	<g id="z636">
		<path id="null" fill="#D80303" stroke="#000000" d="M1409.4,440.1L1391.6 496.1 1370.6 495.9 1388.2 439.9 z"/>
	</g>
	<g id="z651">
		<path id="null" fill="#D80303" stroke="#000000" d="M1273.6,557L1291.7 500.5 1272.2 500.5 1254.2 556.9 z"/>
	</g>
	<g id="z652">
		<path id="null" fill="#D80303" stroke="#000000" d="M1312.3,501.2L1294.3 557.2 1273.7 557.1 1291.7 500.8 z"/>
	</g>
	<g id="z653">
		<path id="null" fill="#D80303" stroke="#000000" d="M1331.6,500.9L1313.8 556.8 1294.4 557.1 1312.4 501.1 z"/>
	</g>
	<g id="z654">
		<path id="null" fill="#D80303" stroke="#000000" d="M1350.7,500.5L1332.8 556.9 1313.3 556.5 1331.1 500.5 z"/>
	</g>
	<g id="z655">
		<path id="null" fill="#D80303" stroke="#000000" d="M1370.6,501L1352.9 557 1333.4 557.1 1351.3 500.9 z"/>
	</g>
	<g id="z656">
		<path id="null" fill="#D80303" stroke="#000000" d="M1389.4,501.1L1371.6 557.1 1352.6 556.9 1370.2 500.9 z"/>
	</g>
	<g id="z641">
		<path id="null" fill="#D80303" stroke="#000000" d="M1421.1,496L1439.2 439.5 1418.7 439.5 1400.7 495.9 z"/>
	</g>
	<g id="z642">
		<path id="null" fill="#D80303" stroke="#000000" d="M1458.8,440.2L1440.8 496.2 1421.2 496.1 1439.2 439.8 z"/>
	</g>
	<g id="z643">
		<path id="null" fill="#D80303" stroke="#000000" d="M1478.6,439.9L1460.8 495.8 1441.4 496.1 1459.4 440.1 z"/>
	</g>
	<g id="z644">
		<path id="null" fill="#D80303" stroke="#000000" d="M1497.7,439.5L1479.8 495.9 1460.3 495.5 1478.1 439.5 z"/>
	</g>
	<g id="z645">
		<path id="null" fill="#D80303" stroke="#000000" d="M1517.6,440L1499.9 496 1480.4 496.1 1498.3 439.9 z"/>
	</g>
	<g id="z661">
		<path id="null" fill="#D80303" stroke="#000000" d="M1400.6,557L1418.9 500.5 1399.2 500.5 1381.1 556.9 z"/>
	</g>
	<g id="z662">
		<path id="null" fill="#D80303" stroke="#000000" d="M1439.5,501.2L1421.3 557.2 1400.5 557.1 1418.7 500.8 z"/>
	</g>
	<g id="z663">
		<path id="null" fill="#D80303" stroke="#000000" d="M1458.7,500.9L1440.8 556.8 1421.3 557.1 1439.4 501.1 z"/>
	</g>
	<g id="z664">
		<path id="null" fill="#D80303" stroke="#000000" d="M1478.9,500.5L1460.8 556.9 1441.1 556.5 1459.1 500.5 z"/>
	</g>
	<g id="z665">
		<path id="null" fill="#D80303" stroke="#000000" d="M1497.7,501L1479.9 557 1460.3 557.1 1478.3 500.9 z"/>
	</g>
	<g id="z666">
		<path id="null" fill="#D80303" stroke="#000000" d="M1517.6,501.1L1499.6 557.1 1480.4 556.9 1498.2 500.9 z"/>
	</g>
	<g id="z667">
		<path id="null" fill="#D80303" stroke="#000000" d="M1517.7,500.5L1544.7 500.5 1531 542.7 1517.9 557.3 1499.3 556.8 z"/>
	</g>
	<g id="z671">
		<path id="null" fill="#D80303" stroke="#000000" d="M1185.5,632.5L1165.5 632.5 1184 576.5 1204.5 576.5 z"/>
	</g>
	<g id="z672">
		<path id="null" fill="#D80303" stroke="#000000" d="M1205.5,632.5L1184.5 632.5 1203 576.5 1223.5 576.5 z"/>
	</g>
	<g id="z673">
		<path id="null" fill="#D80303" stroke="#000000" d="M1205.6,632.5L1224.6 632.5 1242.4 576.5 1223.6 576.5 z"/>
	</g>
	<g id="z674">
		<path id="null" fill="#D80303" stroke="#000000" d="M1244.5,632.5L1224.5 632.5 1242.3 576.5 1261.5 576.5 z"/>
	</g>
	<g id="z675">
		<path id="null" fill="#D80303" stroke="#000000" d="M1281.4,576.5L1263.6 632.5 1244.6 632.5 1261.6 576.5 z"/>
	</g>
	<g id="z676">
		<path id="null" fill="#D80303" stroke="#000000" d="M1285.5,632.5L1264.5 632.5 1282.2 576.5 1303.5 576.5 z"/>
	</g>
	<g id="z681">
		<path id="null" fill="#D80303" stroke="#000000" d="M1161.5,636.5L1220.5 636.5 1214.6 655.5 1155.5 655.5 z"/>
	</g>
	<g id="z682">
		<path id="null" fill="#D80303" stroke="#000000" d="M1149.4,674.5L1155.6 655.5 1214.6 655.5 1208.5 674.5 z"/>
	</g>
	<g id="z683">
		<path id="null" fill="#D80303" stroke="#000000" d="M1143.5,693L1149.3 674.5 1208.5 674.5 1202.1 693.1 z"/>
	</g>
	<g id="z684">
		<path id="null" fill="#D80303" stroke="#000000" d="M1137.6,711.5L1143.8 692.7 1202.4 692.8 1196.4 711.5 z"/>
	</g>
	<g id="z685">
		<path id="null" fill="#D80303" stroke="#000000" d="M1131.5,731L1137.8 711 1196.5 711 1189.9 731 z"/>
	</g>
	<g id="z691">
		<path id="null" fill="#D80303" stroke="#000000" d="M1225.5,636.5L1284.5 636.5 1278.6 656.5 1219.5 656.5 z"/>
	</g>
	<g id="z692">
		<path id="null" fill="#D80303" stroke="#000000" d="M1213.4,675.5L1219.6 656.5 1278.6 656.5 1272.5 675.5 z"/>
	</g>
	<g id="z693">
		<path id="null" fill="#D80303" stroke="#000000" d="M1207.5,694L1213.3 675.5 1272.5 675.5 1266.1 694.1 z"/>
	</g>
	<g id="z694">
		<path id="null" fill="#D80303" stroke="#000000" d="M1201.6,712.5L1207.8 693.7 1266.4 693.8 1260.4 712.5 z"/>
	</g>
	<g id="z695">
		<path id="null" fill="#D80303" stroke="#000000" d="M1195.5,731.5L1201.8 712.5 1260.5 712.5 1253.9 731.5 z"/>
	</g>
	<g id="z701">
		<path id="null" fill="#D80303" stroke="#000000" d="M1309.3,632.5L1326.9 576.5 1346.7 576.5 1328.9 632.5 z"/>
	</g>
	<g id="z702">
		<path id="null" fill="#D80303" stroke="#000000" d="M1329.3,632.5L1346.9 576.5 1366.7 576.5 1348.9 632.5 z"/>
	</g>
	<g id="z703">
		<path id="null" fill="#D80303" stroke="#000000" d="M1349.3,632.5L1366.9 576.5 1386.7 576.5 1368.9 632.5 z"/>
	</g>
	<g id="z704">
		<path id="null" fill="#D80303" stroke="#000000" d="M1368.3,632.5L1385.9 576.5 1405.7 576.5 1387.9 632.5 z"/>
	</g>
	<g id="z705">
		<path id="null" fill="#D80303" stroke="#000000" d="M1388.3,632.5L1405.9 576.5 1425.7 576.5 1407.9 632.5 z"/>
	</g>
	<g id="z706">
		<path id="null" fill="#D80303" stroke="#000000" d="M1426.5,576.5L1447.5 576.5 1432.6 623 1419.2 632.5 1408.5 632.5 z"/>
	</g>
	<g id="z711">
		<path id="null" fill="#D80303" stroke="#000000" d="M1306,637.5L1364 637.5 1358.4 655.5 1300 655.5 z"/>
	</g>
	<g id="z712">
		<path id="null" fill="#D80303" stroke="#000000" d="M1293.9,674.2L1300.2 655.5 1358.2 655.5 1352.3 674.4 z"/>
	</g>
	<g id="z713">
		<path fill="#D80303" stroke="#000000" stroke-miterlimit="10" d="M1290.8,703.8c-3.8,0-5.6-3-4.6-7.3s7.5-22.3,7.5-22.3l58.3,0.2    l-2.1,7.4l-31.3,22L1290.8,703.8z"/>
	</g>
	<g id="z771">
		<path fill="#D80303" stroke="#000000" stroke-miterlimit="10" d="M364.5,805.5h-23c0,0-30.8-42.6-33.1-46.3s0-8.1,1.5-8.9    c3.3,0,36.8,0,36.8,0L364.5,805.5z"/>
	</g>
	<g id="z772">
		<path id="null" fill="#D80303" stroke="#000000" d="M363.9,805.5L383.9 805.5 365.7 750.2 346.1 750.2 z"/>
	</g>
	<g id="z773">
		<path id="null" fill="#D80303" stroke="#000000" d="M384.1,805.5L404.1 805.5 385.9 750.1 365.9 750.2 z"/>
	</g>
	<g id="z774">
		<path id="null" fill="#D80303" stroke="#000000" d="M422.6,805.5L403.6 805.5 385.4 750.1 405 750.1 z"/>
	</g>
	<g id="z775">
		<path id="null" fill="#D80303" stroke="#000000" d="M442.7,805.8L422.9 805.8 405.2 750.3 425.1 750.2 z"/>
	</g>
	<g id="z776">
		<path id="null" fill="#D80303" stroke="#000000" d="M462.8,805.8L442.9 805.8 425.2 750.2 444.7 750.2 z"/>
	</g>
	<g id="z761">
		<path id="null" fill="#D80303" stroke="#000000" d="M472,805.5L492 805.5 474.3 750.1 454 750.2 z"/>
	</g>
	<g id="z762">
		<path id="null" fill="#D80303" stroke="#000000" d="M513.5,805.6L492.1 805.8 474.5 750.3 495.8 750.4 z"/>
	</g>
	<g id="z763">
		<path id="null" fill="#D80303" stroke="#000000" d="M532.6,805.5L512.6 805.5 495.4 750.2 514.6 750.1 z"/>
	</g>
	<g id="z764">
		<path id="null" fill="#D80303" stroke="#000000" d="M533,805.5L553 805.5 535.3 750.1 515 750.1 z"/>
	</g>
	<g id="z765">
		<path id="null" fill="#D80303" stroke="#000000" d="M554.5,750.3L572.4 805.6 553.3 805.8 535.6 750.2 z"/>
	</g>
	<g id="z766">
		<path id="null" fill="#D80303" stroke="#000000" d="M573.8,750.4L591.9 805.7 571.9 805.6 554.1 750.3 z"/>
	</g>
	<g id="z767">
		<path id="null" fill="#D80303" stroke="#000000" d="M593.7,750.2L611.9 805.5 592.1 805.5 574.1 750.1 z"/>
	</g>
	<g id="z751">
		<path id="null" fill="#D80303" stroke="#000000" d="M621,805.5L641 805.5 623.3 750.1 603 750.2 z"/>
	</g>
	<g id="z752">
		<path id="null" fill="#D80303" stroke="#000000" d="M662.5,805.6L641.1 805.8 623.5 750.3 644.8 750.4 z"/>
	</g>
	<g id="z753">
		<path id="null" fill="#D80303" stroke="#000000" d="M681.6,805.5L661.6 805.5 644.4 750.2 663.6 750.1 z"/>
	</g>
	<g id="z754">
		<path id="null" fill="#D80303" stroke="#000000" d="M682,805.5L702 805.5 684.3 750.1 664 750.1 z"/>
	</g>
	<g id="z755">
		<path id="null" fill="#D80303" stroke="#000000" d="M703.5,750.3L721.4 805.6 702.3 805.8 684.6 750.2 z"/>
	</g>
	<g id="z756">
		<path id="null" fill="#D80303" stroke="#000000" d="M722.8,750.4L740.9 805.7 720.9 805.6 703.1 750.3 z"/>
	</g>
	<g id="z757">
		<path id="null" fill="#D80303" stroke="#000000" d="M742.7,750.2L760.9 805.5 741.1 805.5 723.1 750.1 z"/>
	</g>
	<g id="z737">
		<path id="null" fill="#D80303" stroke="#000000" d="M1029.5,805.6L1050.9 805.8 1068.5 750.3 1047.2 750.4 z"/>
	</g>
	<g id="z736">
		<path id="null" fill="#D80303" stroke="#000000" d="M1009.4,805.5L1029.4 805.5 1046.6 750.2 1027.4 750.1 z"/>
	</g>
	<g id="z735">
		<path id="null" fill="#D80303" stroke="#000000" d="M1010,805.5L990 805.5 1007.7 750.1 1028 750.1 z"/>
	</g>
	<g id="z734">
		<path id="null" fill="#D80303" stroke="#000000" d="M988.5,750.3L970.6 805.6 989.7 805.8 1007.4 750.2 z"/>
	</g>
	<g id="z733">
		<path id="null" fill="#D80303" stroke="#000000" d="M968.2,750.4L950.1 805.7 970.1 805.6 987.9 750.3 z"/>
	</g>
	<g id="z732">
		<path id="null" fill="#D80303" stroke="#000000" d="M949.3,750.2L931.1 805.5 950.9 805.5 968.9 750.1 z"/>
	</g>
	<g id="z731">
		<path id="null" fill="#D80303" stroke="#000000" d="M931,805.5L911 805.5 928.7 750.1 949 750.2 z"/>
	</g>
	<g id="z747">
		<path id="null" fill="#D80303" stroke="#000000" d="M880.5,805.6L900.9 805.8 918.5 750.3 898.2 750.4 z"/>
	</g>
	<g id="z746">
		<path id="null" fill="#D80303" stroke="#000000" d="M860.4,805.5L880.4 805.5 897.6 750.2 878.4 750.1 z"/>
	</g>
	<g id="z745">
		<path id="null" fill="#D80303" stroke="#000000" d="M861,805.5L841 805.5 858.7 750.1 879 750.1 z"/>
	</g>
	<g id="z744">
		<path id="null" fill="#D80303" stroke="#000000" d="M839.5,750.3L821.6 805.6 840.7 805.8 858.4 750.2 z"/>
	</g>
	<g id="z743">
		<path id="null" fill="#D80303" stroke="#000000" d="M820.2,750.4L802.1 805.7 822.1 805.6 839.9 750.3 z"/>
	</g>
	<g id="z742">
		<path id="null" fill="#D80303" stroke="#000000" d="M801.3,750.2L783.1 805.5 802.9 805.5 820.9 750.1 z"/>
	</g>
	<g id="z721">
		<path id="null" fill="#D80303" stroke="#000000" d="M1059.4,805.7L1078.7 806 1096.6 750.1 1077.1 750 z"/>
	</g>
	<g id="z722">
		<path id="null" fill="#D80303" stroke="#000000" d="M1116.9,750.2L1098.7 805.7 1079.1 805.9 1096.9 750.1 z"/>
	</g>
	<g id="z723">
		<path id="null" fill="#D80303" stroke="#000000" d="M1136.7,750.1L1118.7 805.5 1099.3 805.5 1117.2 750.3 z"/>
	</g>
	<g id="z724">
		<path id="null" fill="#D80303" stroke="#000000" d="M1157.1,750L1138.5 806 1118.9 805.7 1137.2 750.1 z"/>
	</g>
	<g id="z725">
		<path id="null" fill="#D80303" stroke="#000000" d="M1182.1,749.8L1170.1 787.5 1144.4 806.2 1137.9 806.1 1156.7 750.2 z"/>
	</g>
	<g id="z816">
		<path id="null" fill="#D80303" stroke="#000000" d="M1050.5,866.5L1060.5 866.5 1085.5 848.5 1097.5 810.5 1068.5 810.5 z"/>
	</g>
	<g id="z815">
		<path id="null" fill="#D80303" stroke="#000000" d="M1030,866.5L1048 810.9 1068 810.7 1050.4 866.5 z"/>
	</g>
	<g id="z814">
		<path id="null" fill="#D80303" stroke="#000000" d="M1010,866.5L1030 866.5 1048 810.5 1028 810.5 z"/>
	</g>
	<g id="z811">
		<path id="null" fill="#D80303" stroke="#000000" d="M950.4,866.5L971.4 866.5 989.6 810.3 968.7 810.5 z"/>
	</g>
	<g id="z812">
		<path id="null" fill="#D80303" stroke="#000000" d="M1008.9,810.5L991 866.5 971.1 866.5 989.4 810.5 z"/>
	</g>
	<g id="z813">
		<path id="null" fill="#D80303" stroke="#000000" d="M1028.5,810.5L1010.5 866.5 991.5 866.5 1009.2 810.5 z"/>
	</g>
	<g id="z781">
		<path id="null" fill="#D80303" stroke="#000000" d="M394.5,809.9L412.5 865.8 382.6 866.1 343.8 810.2 z"/>
	</g>
	<g id="z782">
		<path id="null" fill="#D80303" stroke="#000000" d="M432,866.1L412 865.7 394 809.9 413.8 810.1 z"/>
	</g>
	<g id="z783">
		<path id="null" fill="#D80303" stroke="#000000" d="M451.8,865.8L432.4 866 414.2 810 434 810.1 z"/>
	</g>
	<g id="z784">
		<path id="null" fill="#D80303" stroke="#000000" d="M470.7,866.1L451 866.2 433.3 810.5 452.5 810.5 z"/>
	</g>
	<g id="z785">
		<path id="null" fill="#D80303" stroke="#000000" d="M491,866.5L471 866.5 453 810.3 472.8 810.5 z"/>
	</g>
	<g id="z786">
		<path id="null" fill="#D80303" stroke="#000000" d="M510.9,865.9L491.3 866 473.1 810 492.9 810.1 z"/>
	</g>
	<g id="z787">
		<path id="null" fill="#D80303" stroke="#000000" d="M530.7,866.5L511.7 866.5 493.3 810.5 512.7 810.5 z"/>
	</g>
	<g id="z788">
		<path id="null" fill="#D80303" stroke="#000000" d="M551,865.8L531 866 513 810 532.7 810.1 z"/>
	</g>
	<g id="z789">
		<path id="null" fill="#D80303" stroke="#000000" d="M572.4,865.9L551.8 865.9 533.6 810.1 554.4 810.1 z"/>
	</g>
	<g id="z799">
		<path id="null" fill="#D80303" stroke="#000000" d="M738.5,866.8L720.4 811.1 741.4 811 759.6 867 z"/>
	</g>
	<g id="z798">
		<path id="null" fill="#D80303" stroke="#000000" d="M701.1,810.8L720.7 810.8 738.9 866.5 719 866.5 z"/>
	</g>
	<g id="z797">
		<path id="null" fill="#D80303" stroke="#000000" d="M681.1,811L701 811 718.9 867 699.5 867 z"/>
	</g>
	<g id="z796">
		<path id="null" fill="#D80303" stroke="#000000" d="M662,809.9L681.6 810 700 866.1 680.1 865.9 z"/>
	</g>
	<g id="z795">
		<path id="null" fill="#D80303" stroke="#000000" d="M642,810.2L661.9 809.9 680 866 660.4 866.1 z"/>
	</g>
	<g id="z794">
		<path id="null" fill="#D80303" stroke="#000000" d="M640.2,865.8L622.2 810.5 641.4 810.5 659.8 866.3 z"/>
	</g>
	<g id="z793">
		<path id="null" fill="#D80303" stroke="#000000" d="M621.1,865.9L641.1 865.8 622.9 810.2 602.9 810.1 z"/>
	</g>
	<g id="z792">
		<path id="null" fill="#D80303" stroke="#000000" d="M601.1,866.3L582.9 810.5 602.6 810.4 620.8 866.3 z"/>
	</g>
	<g id="z791">
		<path id="null" fill="#D80303" stroke="#000000" d="M581.3,865.9L563.1 810.1 582.7 810.1 600.9 865.9 z"/>
	</g>
	<g id="z801">
		<path id="null" fill="#D80303" stroke="#000000" d="M783.4,866.4L801.5 810.7 780.5 810.6 762.3 866.6 z"/>
	</g>
	<g id="z802">
		<path id="null" fill="#D80303" stroke="#000000" d="M820.9,810.8L801.3 810.8 783.1 866.5 803 866.5 z"/>
	</g>
	<g id="z803">
		<path id="null" fill="#D80303" stroke="#000000" d="M840.9,811L821 811 803.1 867 822.5 867 z"/>
	</g>
	<g id="z804">
		<path id="null" fill="#D80303" stroke="#000000" d="M861,809.9L841.4 810 823 866.1 842.9 865.9 z"/>
	</g>
	<g id="z805">
		<path id="null" fill="#D80303" stroke="#000000" d="M880,810.2L860.1 809.9 842 866 861.6 866.1 z"/>
	</g>
	<g id="z806">
		<path id="null" fill="#D80303" stroke="#000000" d="M881.8,865.8L899.8 810.5 880.6 810.5 862.2 866.3 z"/>
	</g>
	<g id="z807">
		<path id="null" fill="#D80303" stroke="#000000" d="M901.9,865.9L881.9 865.8 900.1 810.2 920.1 810.1 z"/>
	</g>
	<g id="z808">
		<path id="null" fill="#D80303" stroke="#000000" d="M920.8,866L939 810.2 919.2 810 901 865.9 z"/>
	</g>
	<g id="z809">
		<path id="null" fill="#D80303" stroke="#000000" d="M940.7,865.9L958.9 810.1 939.3 810.1 921.1 865.9 z"/>
	</g>
</g>
<g id="Layer_2">
	<path fill="#9BCD0D" stroke="#000000" stroke-miterlimit="10" d="M264.5,745.7c4.8-2.5,11.3-4,16.5,3S369.2,873,371.3,876   s5.7,5.7,12.5,5.5s675.2-1,679-1s8-1.3,12-3.7s199.7-142.3,203-144.7s5.8-4.8,9.2-8s14-16.8,14-16.8l12.8-0.2l4.5-3.2l189.5-135.5   l28.7-31.8l2.5-0.4l-4.3,14.8l-10.2,23l-452,321.5L367,894L264.5,745.7z"/>
	<path fill="#9BCD0D" stroke="#000000" stroke-miterlimit="10" d="M231.2,698c1.2-4.7,0.8-7.7-2-17.3c-2.8-9.7-40-124.7-40-124.7   l2.2-2.7c0,0-5.2-14.7-8-21.8c-2.8-7.2-4.8-9-13.3-10.3s-18.2-7.8-24.3-17.3c-6.2-9.5-78.3-124.8-83-132.3s-4.5-17.2,0.8-27   c5.3-9.8,10.1-14.1,17.3-22.4s22.3-27,28.9-35.3c6.7-8.3,24.2-18.7,44.3-3.7c1.3,0,5.2-0.2,5.2-0.2l-24.8-21l1.3-6.5l-10.5-4.5   l24-61.5l-0.5-5.2l-3,1.5l-9.2,17L13.5,354L231.2,698z"/>
	<g>
		<path fill="#9BCD0D" stroke="#000000" stroke-miterlimit="10" d="M194.1,148.9l11.1,5c0,0-15.1,0-23.9-0.1s-11-6.9-9.3-12.1    s16.4-37.8,18.4-42.9s2.8-9.8,3.8-18.3s2.5-20.6,3.8-28.5s7.1-18.6,15.4-19.9s12.9,0.1,23.9,5.1s26,12.4,37.6,19.8    s28.3,19.6,62.3,35.6c-23.4,2.8-61.8,7-66.1,7.5s-8.4,3-7.8,7.8s1,9.6,1,9.6c-8.4,0.8-11.1,7.9-10.8,12.6s5,11.1,13.9,11    c0,3.3,0.4,6.5,0.4,7s-0.3,2.4-2.1,2.4s-33.4-0.1-38.8-0.1c-1.4,0-2.9-5.3-2.4-8.1c3.5,1.6,11.1,4.6,11.1,4.6l15.4-38.3l-10.9-4.6    l3-7.5l-12.9-5L227,99l-10.8-4.6L194.1,148.9z"/>
	</g>
	<path fill="#ACCEE9" stroke="#000000" stroke-miterlimit="10" d="M220.3,50.8c9.3-6.6,22.2-7.3,29.8-3.6s11.1,5.8,9.6,12.3   s-2,27.9-17.7,29.9s-24.9-5.4-28.7-13.3S210.4,57.8,220.3,50.8z"/>
	<circle fill="#ACCEE9" stroke="#000000" stroke-miterlimit="10" cx="262.9" cy="129.1" r="3.3"/>
	<path fill="#9BCD0D" stroke="#000000" stroke-miterlimit="10" d="M285.5,150.8c-3.3,0-5.9-2.9-6.3-6.4s-1.2-10.1-1.2-11.9   s1.7-2.7,4.3-2.9s4.8,0.8,5.3,3.1s0.3,4,0.5,5.2c0.2,1.2,1.3,2.8,5.3,2.5c4-0.3,19.3-2.3,21-2.6s7.2-8.9,5.9-14.3   s-5.9-13.8-8.4-13.8s-21.3,2.2-23.1,2.5s-3.4,1.9-3.3,3.8c0.1,2.3,0.2,3.6,0.3,4.9c0.2,2-1.3,3.9-4.2,4.1s-4.5-0.3-4.8-2.5   s-1.7-12.3-1.8-14.2c-0.2-1.9,1.8-3.9,4.3-4.3c2.5-0.3,36.9-4.4,38.7-4.6s3.5,1.8,3.7,3.8s5,39.6,5.3,42.3s-1.4,5.3-3.6,5.3   S289.1,150.8,285.5,150.8z"/>
	<path fill="#9BCD0D" stroke="#000000" stroke-miterlimit="10" d="M364.6,151.3c-4.1,0-9-5.3-10.1-8s-2-6.9-0.5-11.5   s9.3-27.9,9.3-27.9c9.8,3.5,22.6,7.8,31.8,11.1s15.8,17.6,15.6,24.5s-3,10.4-4.6,11.6C396.1,151.1,364.6,151.3,364.6,151.3z"/>
	<path fill="#9BCD0D" stroke="#000000" stroke-miterlimit="10" d="M643.3,40l-4.5,17.3L504.3,92L491,134.8l122.8-0.8l4-11.3   c9.5,0.5,15.1,11.8,14.3,17s-5.3,10.8-5.9,11.1c-12.8,0.4-204.6,0.1-204.6,0.1c-2.5-3-2.8-4-2.5-10.2c0.3-6.2-2-14.7-5.5-20   c-3.5-5.3-9.7-11.3-19.5-16.5C441.3,92.2,643.3,40,643.3,40z"/>
	<path fill="#9BCD0D" stroke="#000000" stroke-miterlimit="10" d="M671,60l19.5,5.5c0,0-5.3,11.2-18.5,6.2C666.5,70.2,671,60,671,60   z"/>
	<path fill="#9BCD0D" stroke="#000000" stroke-miterlimit="10" d="M149.8,463l-9.5,5.8c7.2,12,19,30.5,22.2,34s7.2,5.5,13.2,3   s16.7-8.7,16.7-8.7l-4.7-8l12.8-8.5l5.5,7.8c0,0,4.2-1.7,8.5-4.2c4.3-2.5,8.5-7.3,6.3-14.3c-2.2-7-21.5-70.5-21.5-70.5l-22.7,13.3   l-3.3-4.7l24.2-16c-4.8-15.5-5.7-17.8-6.3-19.8c-0.7-1.9-1.1-4.6-0.9-10.7c0.2-6.1-0.5-11.6-0.4-19.1s-0.3-11.3-5.8-16   s-33.6-28.5-39.6-33.3s-12.4-7.3-23.9,1.6c6.1,4.8,9,6.3,9,6.3l-35,42l-8.3-6.5c0,0-7.5,9.1-10.9,14.5s-3.6,9.9-0.6,14.4   s42.3,66.6,42.3,66.6l10-6.1L149.8,463z"/>
	<path fill="#9BCD0D" stroke="#000000" stroke-miterlimit="10" d="M261.8,539.3c-22.2,0-57.7,0.3-57.7,0.3c-3-1.8-7.2-10-8-14.7   c-0.8-4.7-2.8-12.7,7.5-18.5c10.3-5.8,14.5-8.2,19.3-11.5c4.8-3.3,15.2-12.7,11.5-27c-3.7-14.3-27.2-89.2-28.7-95.7   s-1.8-8.2-1.7-12.7c0.2-4.5-0.2-11.5-0.3-21.8c-0.2-10.3-7.5-18.3-12.8-22.7s-10.8-10.7-8.2-20.7c12,3.7,40.3,13.5,40.3,13.5   s-14,42.3-15,45.8s-1.3,13,1.5,21C212.5,382.8,261.8,539.3,261.8,539.3z"/>
	<path fill="#9BCD0D" stroke="#000000" stroke-miterlimit="10" d="M762,802.5c0,0-14-42.6-14.6-45.1s0.5-4.1,2.5-4.1   s39.4-0.1,41.8,0s3.4,1.6,2.6,4.3s-14,44.9-14,44.9H762z"/>
	<path fill="#9BCD0D" stroke="#000000" stroke-miterlimit="10" d="M763,589.8c-0.8,1.9-3.5,2.1-4.3-0.8c-0.8-2.9-6.5-19.6-7.1-21.9   c-0.6-2.3,0.6-3.9,1.8-3.9s12.8,0.1,14.8,0.1s2.9,2.3,2,4.7S764,587.3,763,589.8z"/>
	<path fill="#9BCD0D" stroke="#000000" stroke-miterlimit="10" d="M233.8,275.7l-9.7-3l29.7-89.5c7,2.2,7.3,8.5,6.2,12.5   S233.8,275.7,233.8,275.7z"/>
	<path fill="#9BCD0D" stroke="#000000" stroke-miterlimit="10" d="M224,558.5h41c3.5,2.3,4.8,5.8,5.7,8.7   c0.8,2.8,45.2,139.2,48,148.7c2.8,9.5-3.7,13.8-4.8,14.8c-20.8,0.5-51-12.8-60.3-40.8c-9.3-28-35.5-108.3-37.7-117   C213.7,564.2,219.7,559,224,558.5z"/>
	<path fill="#9BCD0D" stroke="#000000" stroke-miterlimit="10" d="M287,558.5h42c0,0,6.1,1.5,7.9,7.4s46.1,143.3,48.3,151   s-3.8,13.9-8.6,13.9s-37,0.1-41.9,0.1c-2.1-2.5-3.6-3.6-5.6-10.6s-44.9-141.1-46.9-147.9S283.9,561.3,287,558.5z"/>
	<path fill="#9BCD0D" stroke="#000000" stroke-miterlimit="10" d="M687.8,92l-1.3,6l12,2.5l86-14l386.8,62.8l73.8,23.3l35.5,110.3   c0,0-42.8,0.8-47,0.5s-7.3-2.8-9.3-8s-22-68.5-23.5-72.3s-2.5-8.3-4.3-17.3s-11.8-24.8-31.8-25s-23.5-0.8-23.5-0.8l0.5-11   L919,148.8l-0.3,10.5c0,0-257-0.3-262.5-0.3s-13-6-9.8-15s18-52,19-54.5s2.3-3.8,7.8-2.3S687.8,92,687.8,92z"/>
	<path fill="#9BCD0D" stroke="#000000" stroke-miterlimit="10" d="M1283.8,283.3l-15.3-47.5c0,0,81.3,0.3,86.3,0.3   s8.8,2.3,11.3,10.3s11.5,37.8,11.5,37.8L1283.8,283.3z"/>
	<path fill="#9BCD0D" stroke="#000000" stroke-miterlimit="10" d="M1267.1,232.1l-18.7-57.4l64,19.3l7.5,15.5l120.3,60.6l0.8,2.4   h-30l-0.3,11l-29.3-0.3c0,0-12.3-35-13.8-40.8s-6.3-9.5-12.8-9.5S1267.1,232.1,1267.1,232.1z"/>
	<path fill="#9BCD0D" stroke="#000000" stroke-miterlimit="10" d="M442.5,167.8c0,2.1-1.7,3.8-3.8,3.8H239.3c-2.1,0-3.8-1.7-3.8-3.8   v-0.5c0-2.1,1.7-3.8,3.8-3.8h199.5c2.1,0,3.8,1.7,3.8,3.8V167.8z"/>
	<path fill="#9BCD0D" stroke="#000000" stroke-miterlimit="10" d="M632.5,167.1c0,1.9-1.5,3.4-3.4,3.4H452.9c-1.9,0-3.4-1.5-3.4-3.4   v-0.3c0-1.9,1.5-3.4,3.4-3.4h176.3c1.9,0,3.4,1.5,3.4,3.4V167.1z"/>
	<path fill="#9BCD0D" stroke="#000000" stroke-miterlimit="10" d="M233.5,359c-9.3,0-13.5-11.5-12-16.8s47-145.3,48.5-149.8   s3.8-8.3,4.8-9c20,0,30.5-0.3,37.3,0s12.3,7.3,10,14s-48.5,150.8-52,159c-1.1,1.7-4.4,2.6-8.4,2.6S233.5,359,233.5,359z"/>
	<path fill="#9BCD0D" stroke="#000000" stroke-miterlimit="10" d="M275,539.5c-1.7-0.1-3.2-1.7-4.3-4.3s-41.3-127.5-43.2-134.5   c-1.8-7,2.3-18.5,10.8-18.7s23.5,0,33.2,0c3.7,2.7,7.3,7.2,8.3,10.5s41.2,125.2,43.3,133.2s-3.5,14.3-9.7,14.3   S285.2,539.8,275,539.5z"/>
	<path fill="#9BCD0D" stroke="#000000" stroke-miterlimit="10" d="M148.8,190.8l3.8-10c0,0,0.5-1.3,3-2s7-1.8,8.6-0.7   c1.6,1.1,1.7,1.9,1.2,3.1c-0.5,1.2-5.7,14-5.7,14L148.8,190.8z"/>
	<path fill="#9BCD0D" stroke="#000000" stroke-miterlimit="10" d="M180,182c1.3-3.2,10.6-6.8,17.2-3.4c6.6,3.4,6.4,7.9,4.8,12.3   C193.9,187.8,180,182,180,182z"/>
	<g>
		<path fill="#9BCD0D" stroke="#000000" stroke-miterlimit="10" d="M648.1,361.8c3.1,0,32.3,0.2,34.5,0.2s2.3,0.9,2.9,2.5    c0.7,1.6,28.3,87.3,29.2,90.3s0,4.9-2.3,4.9s-32.1-0.2-34.5-0.2s-2.5-1.2-3.4-3.8c-0.9-2.6-28.4-88.6-29.1-90.7    S646,361.8,648.1,361.8z"/>
		<path fill="#9BCD0D" stroke="#000000" stroke-miterlimit="10" d="M874.1,361.8c-3.1,0-32.3,0.2-34.5,0.2s-2.3,0.9-2.9,2.5    c-0.7,1.6-28.3,87.3-29.2,90.3c-0.8,3,0,4.9,2.3,4.9s32.1-0.2,34.5-0.2s2.5-1.2,3.4-3.8c0.9-2.6,28.4-88.6,29.1-90.7    S876.2,361.8,874.1,361.8z"/>
		<path fill="#9BCD0D" stroke="#000000" stroke-miterlimit="10" d="M647.7,358.9c-2.3,0-3.3-1.6-2.5-4.1s46-141.2,46-141.2H704    c0.6,2.3,0.6,4.6-0.1,6.8s-30.8,93.3-31.4,95.4s-1.6,3.8-0.4,7.1s9.3,29.6,10.4,32.4c1.2,2.8-1.4,3.9-3.3,3.9    S647.7,358.9,647.7,358.9z"/>
		<path fill="#9BCD0D" stroke="#000000" stroke-miterlimit="10" d="M873.6,358.9c2.3,0,3.3-1.6,2.5-4.1s-46-141.2-46-141.2h-12.8    c-0.6,2.3-0.6,4.6,0.1,6.8s30.8,93.3,31.4,95.4s1.6,3.8,0.4,7.1c-1.2,3.3-9.3,29.6-10.4,32.4c-1.2,2.8,1.4,3.9,3.3,3.9    S873.6,358.9,873.6,358.9z"/>
		<path fill="#9BCD0D" stroke="#000000" stroke-miterlimit="10" d="M846.1,318.4c-0.3-0.8-30.8-94.2-32.3-98.7s-6.9-6.2-6.9-6.2    s-87.8,0-91.3,0s-6.5,3.8-7.3,5.8S676,318.2,675.7,319c-0.3,0.8-0.1,1.7,0.2,2.3s43.2,133.9,43.8,135.9c0.6,2.1,1.9,2.1,3.2,2.1    c0,0,14.6,0,31.1,0c-30.5-5.1-54.2-42.6-54.2-88.1c0-49,27.5-88.8,61.4-88.8s61.4,39.7,61.4,88.8c0,45.5-23.7,83-54.2,88.1    c16.4,0,31,0,31.6,0c1.4,0,2.2-1.4,2.6-2.5s43.3-134.7,43.6-135.7S846.4,319.1,846.1,318.4z"/>
		<g>
			<g>
				<path fill="#9BCD0D" d="M761.1,423c-9.1,0-16.8-11.5-16.8-25c0-13.6,7.7-25,16.8-25s16.8,11.5,16.8,25      C777.9,411.6,770.2,423,761.1,423z"/>
			</g>
			<g>
				<path fill="none" stroke="#000000" stroke-miterlimit="10" d="M761.1,423c-9.1,0-16.8-11.5-16.8-25c0-13.6,7.7-25,16.8-25      s16.8,11.5,16.8,25C777.9,411.6,770.2,423,761.1,423z"/>
			</g>
		</g>
		<path fill="#9BCD0D" stroke="#000000" stroke-miterlimit="10" d="M750,440.6c-4.8-1.9-9.3-5.1-13.3-9.3l-9.6,6.7    c5.7,6.4,12.1,11.2,19.2,14.1L750,440.6z"/>
		<path fill="#9BCD0D" stroke="#000000" stroke-miterlimit="10" d="M755.1,424.7c-1.6-0.7-3.2-1.7-4.6-3L740,429    c3.4,3.4,7.2,6.1,11.2,7.8L755.1,424.7z"/>
		<path fill="#9BCD0D" stroke="#000000" stroke-miterlimit="10" d="M769.7,441.5c-2.8,0.8-5.6,1.3-8.5,1.3c-2.9,0-5.8-0.4-8.6-1.3    L749,453c3.9,1.3,8,2,12.1,2c4.2,0,8.3-0.7,12.3-2L769.7,441.5z"/>
		<path fill="#9BCD0D" stroke="#000000" stroke-miterlimit="10" d="M764.5,425.6c-1.1,0.3-2.2,0.4-3.4,0.4c-1.2,0-2.5-0.2-3.6-0.5    l-3.8,12.1c2.4,0.7,4.9,1.1,7.4,1.1c2.5,0,4.9-0.4,7.3-1.1L764.5,425.6z"/>
		<path fill="#9BCD0D" stroke="#000000" stroke-miterlimit="10" d="M726,401.7c2.3,10.1,6.6,18.9,12.2,25.3l10.7-7.1    c-2.5-2.8-4.5-6.5-5.8-10.6L726,401.7z"/>
		<path fill="#9BCD0D" stroke="#000000" stroke-miterlimit="10" d="M706.7,393.2c3.1,16.9,9.6,31.6,18.4,42.5l9.7-6.4    c-6.4-7.6-11.1-17.8-13.4-29.5L706.7,393.2z"/>
		<path fill="#9BCD0D" stroke="#000000" stroke-miterlimit="10" d="M720.7,373.5l-15.1-16.8c-0.6,4.7-0.9,9.6-0.9,14.5    c0,6.4,0.5,12.5,1.4,18.5l14.7,6.5c-0.6-3.9-0.9-7.9-0.9-12C720,380.6,720.2,377,720.7,373.5z"/>
		<path fill="#9BCD0D" stroke="#000000" stroke-miterlimit="10" d="M741.4,396.6l-17.1-19.1c-0.2,2.2-0.3,4.4-0.3,6.7    c0,4.8,0.4,9.5,1.2,13.9l16.9,7.4c-0.5-2.4-0.7-5-0.7-7.6C741.4,397.5,741.4,397.1,741.4,396.6z"/>
		<path fill="#A0C6E2" stroke="#000000" stroke-miterlimit="10" d="M733.2,348.4c-4.2,7-7.2,15.6-8.5,25l17,19.3    c0.6-4.5,2-8.5,3.9-12L733.2,348.4z"/>
		<path fill="#9BCD0D" stroke="#000000" stroke-miterlimit="10" d="M720,314c-6.7,10.6-11.5,23.7-13.8,38.3l15.1,17.2    c1.8-9.8,5.3-18.6,10.1-25.7L720,314z"/>
		<path fill="#9BCD0D" stroke="#000000" stroke-miterlimit="10" d="M758.4,329.9c-9.1,1-17.2,6.8-23.3,15.6l12.2,32.6    c3-4.2,6.9-7,11.2-7.8L758.4,329.9z"/>
		<path fill="#9BCD0D" stroke="#000000" stroke-miterlimit="10" d="M772.3,440.6c4.8-1.9,9.3-5.1,13.3-9.3l9.6,6.7    c-5.7,6.4-12.1,11.2-19.2,14.1L772.3,440.6z"/>
		<path fill="#9BCD0D" stroke="#000000" stroke-miterlimit="10" d="M767.1,424.7c1.6-0.7,3.2-1.7,4.6-3l10.6,7.3    c-3.4,3.4-7.2,6.1-11.2,7.8L767.1,424.7z"/>
		<path fill="#A0C6E2" stroke="#000000" stroke-miterlimit="10" d="M796.3,401.7c-2.3,10.1-6.6,18.9-12.2,25.3l-10.7-7.1    c2.5-2.8,4.5-6.5,5.8-10.6L796.3,401.7z"/>
		<path fill="#9BCD0D" stroke="#000000" stroke-miterlimit="10" d="M815.5,393.2c-3.1,16.9-9.6,31.6-18.4,42.5l-9.7-6.4    c6.4-7.6,11.1-17.8,13.4-29.5L815.5,393.2z"/>
		<path fill="#9BCD0D" stroke="#000000" stroke-miterlimit="10" d="M801.5,373.5l15.1-16.8c0.6,4.7,0.9,9.6,0.9,14.5    c0,6.4-0.5,12.5-1.4,18.5l-14.7,6.5c0.6-3.9,0.9-7.9,0.9-12C802.2,380.6,802,377,801.5,373.5z"/>
		<path fill="#9BCD0D" stroke="#000000" stroke-miterlimit="10" d="M780.8,396.6l17.1-19.1c0.2,2.2,0.3,4.4,0.3,6.7    c0,4.8-0.4,9.5-1.2,13.9l-16.9,7.4c0.5-2.4,0.7-5,0.7-7.6C780.9,397.5,780.9,397.1,780.8,396.6z"/>
		<path fill="#9BCD0D" stroke="#000000" stroke-miterlimit="10" d="M789,348.4c4.2,7,7.2,15.6,8.5,25l-17,19.3    c-0.6-4.5-2-8.5-3.9-12L789,348.4z"/>
		<path fill="#9BCD0D" stroke="#000000" stroke-miterlimit="10" d="M802.2,314c6.7,10.6,11.5,23.7,13.8,38.3l-15.1,17.2    c-1.8-9.8-5.3-18.6-10.1-25.7L802.2,314z"/>
		<path fill="#A0C6E2" stroke="#000000" stroke-miterlimit="10" d="M763.9,329.9c9.1,1,17.2,6.8,23.3,15.6L775,378.1    c-3-4.2-6.9-7-11.2-7.8L763.9,329.9z"/>
		<path fill="#9BCD0D" stroke="#000000" stroke-miterlimit="10" d="M788.5,340.6l11.8-29.6c-10.1-14.5-23.9-23.5-39.1-23.5    c-15.2,0-28.9,9-39.1,23.5l11.3,30.1c7.3-9.5,17.1-15.4,27.8-15.4C771.6,325.8,781.2,331.4,788.5,340.6z"/>
	</g>
	<path fill="#B7740A" stroke="#000000" stroke-miterlimit="10" d="M708.1,269.5c-0.1,1-0.1,2.1-0.1,3.2c0,29.1,23.6,52.7,52.7,52.7   s52.7-23.6,52.7-52.7c0-1.1,0-2.1-0.1-3.2H708.1z"/>
	<path fill="#8F8F8F" stroke="#000000" stroke-miterlimit="10" d="M710,222.5h101l24.7,72.3c-43.3,0-35.3-22-74.8-22   s-31,21.5-73.8,21.5C692.3,277.7,710,222.5,710,222.5z"/>
	<path id="null" fill="#8F8F8F" stroke="#000000" d="M504.3,92L627.5 91.3 613.8 134 491 134.8 z"/>
	<path id="null" fill="#8F8F8F" stroke="#000000" d="M224.2,272.7L193 263.3 199.8 240.8 203.2 241.9 205.9 233.7 210 234.8 216 215.3 219.5 216.2 222.5 206.7 224.5 207.1 227.4 197.6 229.9 198.3 233.3 188.2 237.8 189.5 240.3 181.9 253.8 183.2 z"/>
	<path id="null" fill="none" stroke="#FF0000" d="M131.5,185.5L146.5 186.5 136.5 203.5 13.5 354 232 699 367 894 1072.5 895.5 1524.5 574 1535.2 550.3 1586.5 395.5 1501 359.5 1512 313.5 1471.5 303 1476.5 288 1320 209.5 1313 195 1175.5 151 784.5 86.5 698 99.5 686.5 98 702.5 25.5 395 104 318.5 76.5 251.5 31 223 7 164 149 147.5 150 "/>
	<path id="null" fill="#8F8F8F" stroke="#000000" d="M212,471.5L172 497.8 84.6 358.9 137.9 294.6 176.9 327.8 145.1 365.1 148.8 370.6 158.8 363.9 183.9 401.4 172.3 408.4 176.4 413.9 179.3 412.3 193.6 433.4 189.4 436.3 z"/>
	<path fill="#9BCD0D" stroke="#000000" stroke-miterlimit="10" d="M1251.9,351.4c0,0-10-31.9-12-37.6s5-12.3,8.9-12.3   s112.5,0.3,112.5,0.3l17.1,53.1c0,0-108.6-0.6-114.1-0.6S1253.4,354.5,1251.9,351.4z"/>
	<path fill="#9BCD0D" stroke="#000000" stroke-miterlimit="10" d="M1383.2,354.5l-17.2-53h107l-0.5,0.9l40.8,10.9l-5.5,23l-24.9-7.3   c0,0-4.3,14.6-5.9,18.4s-6.3,8-11.4,8S1383.2,354.5,1383.2,354.5z"/>
	<path fill="#9BCD0D" stroke="#000000" stroke-miterlimit="10" d="M1048,232.5H921c-1.9-6.8-12.3-38.6-13.6-43s0.9-8.5,5.8-8.5   s110,0.1,113,0.1s5.8,1.1,6.8,3.9S1048,232.5,1048,232.5z"/>
	<path fill="#9BCD0D" stroke="#000000" stroke-miterlimit="10" d="M1192,232.5h-127c-1.9-6.8-12.3-38.6-13.6-43s0.9-8.5,5.8-8.5   s110,0.1,113,0.1s5.8,1.1,6.8,3.9S1192,232.5,1192,232.5z"/>
	<path fill="#FEED88" stroke="#000000" stroke-miterlimit="10" d="M729.4,625.1c-0.8-2.7,0-5.3,2.6-5.3s56.4-0.1,58.3-0.1   s3.5,2.8,2.6,5.1s-28.1,86-29.1,89.5s-3.6,4.5-5.4,0S730,627.4,729.4,625.1z"/>
	<path fill="#FEED88" stroke="#000000" stroke-miterlimit="10" d="M745.9,816.9c-0.5-1.7-0.1-4.3,2.3-4.3c1.7,0,24.5,0.2,25.7,0.2   c1.2,0,2.8,1.5,2.2,3.7c-0.7,2.2-11.7,36.1-12.3,38.3s-4.7,2.3-5.5,0.1S746.5,818.9,745.9,816.9z"/>
	<path id="null" fill="#FEED88" stroke="#000000" d="M1032,138.3L921.8 143.8 909.6 109.8 z"/>
	<path id="null" fill="#FEED88" stroke="#000000" d="M1268.8,228.8L1253.6 180.6 1311.5 198.8 1320.8 216.5 1345.9 229 z"/>
	<path id="null" fill="#FEED88" stroke="#000000" d="M1370.3,238.6L1414.6 261.3 1406.1 279.3 1382.6 278.9 z"/>
	<path id="null" fill="#FEED88" stroke="#000000" d="M1489.2,327.2L1490.7 310.5 1510 315.5 1505.5 331.3 z"/>
	<path id="null" fill="#FEED88" stroke="#000000" d="M313.8,727.9L316.5 716.5 311.9 703.3 263.5 701.9 284.9 721.1 z"/>
	<path id="null" fill="#FEED88" stroke="#000000" d="M166.1,521.3L174.3 521.9 182.9 550.4 152.3 550.3 z"/>
	<path id="null" fill="#FEED88" stroke="#000000" d="M142.3,550.3L127.1 525 150.5 509.8 158.5 517.6 z"/>
	<path id="null" fill="#FEED88" stroke="#000000" d="M107.8,496.5L123 519.1 146.3 504.1 131.3 481.4 z"/>
	<path id="null" fill="#FEED88" stroke="#000000" d="M104.4,490.5L128.1 476.1 113.6 452.9 90.1 467.5 z"/>
	<path id="null" fill="#FEED88" stroke="#000000" d="M72,439.5L95.6 424.5 110 447.5 86.9 462.3 z"/>
	<path id="null" fill="#FEED88" stroke="#000000" d="M54.1,410.5L77.9 395.8 92.1 419.1 68.5 433.6 z"/>
	<path id="null" fill="#FEED88" stroke="#000000" d="M35.5,381.6L58.9 367.6 73.1 390.8 50.1 405.1 z"/>
	<path id="null" fill="#FEED88" stroke="#000000" d="M17.9,353.6L41 339.6 55.5 362.4 32.4 376.6 z"/>
	<path id="null" fill="#FEED88" stroke="#000000" d="M114.8,281.3L127.4 266.3 106.5 249.3 93.9 264 z"/>
	<path id="null" fill="#FEED88" stroke="#000000" d="M76.4,284L88.9 268.9 109.8 286.6 97.3 301.4 z"/>
	<path id="null" fill="#FEED88" stroke="#000000" d="M59.5,305L71.8 289.9 93 307.3 80.8 322.4 z"/>
	<path id="null" fill="#FEED88" stroke="#000000" d="M42,324.6L54.6 309.9 75.4 327.4 63.4 342.4 z"/>
	<path id="null" fill="#FEED88" stroke="#000000" d="M1369,637.5L1411.3 637.5 1357 676.3 z"/>
</g>
<g id="">
	<path id="null" fill="#C48B02" stroke="#000000" d="M283.5,674.5L283.5 657.5 285.5 657.5 285.5 655.5 277.5 655.5 277.5 639.5 279.5 639.5 279.5 637.5 271.5 637.5 271.5 621.5 273.5 621.5 273.5 619.5 267 619.5 264.5 619.5 264.5 602.5 266.5 602.5 266.5 600.5 261 600.5 258.5 600.5 258.5 583.5 260.5 583.5 260.5 581.5 252.5 581.5 252.5 565.5 254.5 565.5 254.5 563.5 227.5 563.5 227.5 565.5 229.5 565.5 229.5 582.5 227.5 582.5 227.5 584.5 235.5 584.5 235.5 600.5 233.5 600.5 233.5 602.5 240 602.5 241.5 602.5 241.5 619.5 239.5 619.5 239.5 621.5 247 621.5 248.5 621.5 248.5 638.5 246.5 638.5 246.5 640.5 254.5 640.5 254.5 656.5 252.5 656.5 252.5 658.5 260.5 658.5 260.5 674.5 258.5 674.5 258.5 676.5 265 676.5 266.5 676.5 266.5 693.5 264.5 693.5 264.5 695.5 291.5 695.5 291.5 693.5 289.5 693.5 289.5 676.5 291.5 676.5 291.5 674.5 286 674.5 z"/>
	<path id="null" fill="#C48B02" stroke="#000000" d="M367.5,694.5L367.5 692.5 359.5 692.5 359.5 676.5 361.5 676.5 361.5 674.5 356 674.5 353.5 674.5 353.5 657.5 355.5 657.5 355.5 655.5 347.5 655.5 347.5 639.5 349.5 639.5 349.5 637.5 343 637.5 340.5 637.5 340.5 620.5 342.5 620.5 342.5 618.5 334.5 618.5 334.5 602.5 336.5 602.5 336.5 600.5 331 600.5 328.5 600.5 328.5 583.5 330.5 583.5 330.5 581.5 322.5 581.5 322.5 565.5 324.5 565.5 324.5 563.5 297.5 563.5 297.5 565.5 299.5 565.5 299.5 582.5 297.5 582.5 297.5 584.5 305.5 584.5 305.5 600.5 303.5 600.5 303.5 602.5 310 602.5 311.5 602.5 311.5 619.5 309.5 619.5 309.5 621.5 317.5 621.5 317.5 637.5 315.5 637.5 315.5 639.5 323 639.5 324.5 639.5 324.5 656.5 322.5 656.5 322.5 658.5 330.5 658.5 330.5 674.5 328.5 674.5 328.5 676.5 335 676.5 336.5 676.5 336.5 693.5 334.5 693.5 334.5 695.5 342.5 695.5 342.5 711.5 340.5 711.5 340.5 713.5 367.5 713.5 367.5 711.5 365.5 711.5 365.5 694.5 z"/>
	<path id="null" fill="#C48B02" stroke="#000000" d="M307.5,515.5L307.5 513.5 299.5 513.5 299.5 497.5 301.5 497.5 301.5 495.5 296 495.5 293.5 495.5 293.5 478.5 295.5 478.5 295.5 476.5 287.5 476.5 287.5 460.5 289.5 460.5 289.5 458.5 283 458.5 280.5 458.5 280.5 441.5 282.5 441.5 282.5 439.5 274.5 439.5 274.5 423.5 276.5 423.5 276.5 421.5 271 421.5 268.5 421.5 268.5 404.5 270.5 404.5 270.5 402.5 262.5 402.5 262.5 386.5 264.5 386.5 264.5 384.5 237.5 384.5 237.5 386.5 239.5 386.5 239.5 403.5 237.5 403.5 237.5 405.5 245.5 405.5 245.5 421.5 243.5 421.5 243.5 423.5 250 423.5 251.5 423.5 251.5 440.5 249.5 440.5 249.5 442.5 257.5 442.5 257.5 458.5 255.5 458.5 255.5 460.5 263 460.5 264.5 460.5 264.5 477.5 262.5 477.5 262.5 479.5 270.5 479.5 270.5 495.5 268.5 495.5 268.5 497.5 275 497.5 276.5 497.5 276.5 514.5 274.5 514.5 274.5 516.5 282.5 516.5 282.5 532.5 280.5 532.5 280.5 534.5 307.5 534.5 307.5 532.5 305.5 532.5 305.5 515.5 z"/>
	<path id="null" fill="#C48B02" stroke="#000000" d="M260.5,356.5L258.5 356.5 258.5 340.5 266.5 340.5 266.5 338.5 264.5 338.5 264.5 321.5 267 321.5 272.5 321.5 272.5 319.5 270.5 319.5 270.5 303.5 278.5 303.5 278.5 301.5 276.5 301.5 276.5 284.5 279 284.5 283.5 284.5 283.5 282.5 281.5 282.5 281.5 266.5 289.5 266.5 289.5 264.5 287.5 264.5 287.5 248.5 295.5 248.5 295.5 246.5 293.5 246.5 293.5 229.5 296 229.5 301.5 229.5 301.5 227.5 299.5 227.5 299.5 211.5 307.5 211.5 307.5 209.5 305.5 209.5 305.5 192.5 307.5 192.5 307.5 190.5 280.5 190.5 280.5 192.5 282.5 192.5 282.5 208.5 274.5 208.5 274.5 210.5 276.5 210.5 276.5 227.5 275 227.5 268.5 227.5 268.5 229.5 270.5 229.5 270.5 245.5 262.5 245.5 262.5 247.5 264.5 247.5 264.5 263.5 256.5 263.5 256.5 265.5 258.5 265.5 258.5 282.5 257 282.5 251.5 282.5 251.5 284.5 253.5 284.5 253.5 300.5 245.5 300.5 245.5 302.5 247.5 302.5 247.5 319.5 246 319.5 239.5 319.5 239.5 321.5 241.5 321.5 241.5 337.5 233.5 337.5 233.5 339.5 235.5 339.5 235.5 356.5 233.5 356.5 233.5 358.5 260.5 358.5 z"/>
	<g>
		<path id="null" fill="#C48B02" stroke="#000000" d="M736.3,125.4L719.8 119.8 720.1 118.7 718.7 118.2 716.2 125.7 699.7 120.1 700.1 118.7 698.7 118.2 696.5 124.8 680.9 119.5 681.1 118.7 679.7 118.2 679.5 119 679.4 119 677.1 126 660.6 120.4 661.1 118.7 659.7 118.2 649.3 148.9 650.7 149.4 653.4 141.6 669.9 147.2 669.3 148.9 670.7 149.4 673.7 140.7 689.3 146 688.3 148.9 689.7 149.4 692.5 141.3 709 146.9 708.3 148.9 709.7 149.4 712.6 141 729.1 146.6 728.3 148.9 729.7 149.4 740.1 118.7 738.7 118.2 z"/>
		<path id="null" fill="#C48B02" stroke="#000000" d="M897.4,119.5L897.7 120.5 881.4 126 878.7 118.2 877.3 118.7 877.9 120.4 861.4 126 858.7 118.2 857.3 118.7 857.9 120.4 841.4 126 838.7 118.2 837.3 118.7 837.9 120.4 822.3 125.7 819.7 118.2 818.3 118.7 818.8 120.1 802.3 125.7 799.7 118.2 798.3 118.7 799 120.7 782.3 126.4 781.6 124.1 780.4 124.5 781.1 126.8 781.1 126.8 781.9 129.1 788.9 151 790.1 150.6 789.2 147.7 806.2 141.9 808.7 149.4 810.1 148.9 809.5 146.9 826 141.3 828.7 149.4 830.1 148.9 829.5 146.9 845.1 141.6 847.7 149.4 849.1 148.9 848.6 147.2 865.1 141.6 867.7 149.4 869.1 148.9 868.6 147.2 885.1 141.6 887.7 149.4 889.1 148.9 888.6 147.2 904.6 141.8 905.9 146 907.1 145.6 898.6 119.1 z"/>
		<path id="null" fill="#C48B02" stroke="#000000" d="M1276.1,251.8L1276.9 254.1 1283.9 276 1285.1 275.6 1284.2 272.7 1301.2 266.9 1303.7 274.4 1305.1 273.9 1304.5 271.9 1321 266.3 1323.7 274.4 1325.1 273.9 1324.5 271.9 1340.1 266.6 1342.7 274.4 1344.1 273.9 1343.6 272.2 1360.3 266.5 1361.5 269.4 1363.1 268.9 1353.7 243.2 1352.3 243.7 1353 245.4 1336.4 251 1333.7 243.2 1332.3 243.7 1332.9 245.4 1317.3 250.7 1314.7 243.2 1313.3 243.7 1313.8 245.1 1297.3 250.7 1294.7 243.2 1293.3 243.7 1294 245.7 1277.3 251.4 1276.6 249.1 1275.4 249.5 1276.1 251.8 z"/>
		<path id="null" fill="#C48B02" stroke="#000000" d="M1022.4,190.5L1023 192.4 1006.4 198 1003.7 190.2 1002.3 190.7 1002.9 192.4 986.4 198 983.7 190.2 982.3 190.7 982.9 192.4 967.3 197.7 964.7 190.2 963.3 190.7 963.8 192.1 947.3 197.7 944.7 190.2 943.3 190.7 944 192.7 927.3 198.4 926.6 196.1 925.4 196.5 926.1 198.8 926.1 198.8 926.9 201.1 933.9 223 935.1 222.6 934.2 219.7 951.2 213.9 953.7 221.4 955.1 220.9 954.5 218.9 971 213.3 973.7 221.4 975.1 220.9 974.5 218.9 990.1 213.6 992.7 221.4 994.1 220.9 993.6 219.2 1010.1 213.6 1012.7 221.4 1014.1 220.9 1013.6 219.2 1029.8 213.7 1030.9 217 1032.1 216.6 1023.6 190.1 z"/>
		<path id="null" fill="#C48B02" stroke="#000000" d="M1167.4,190.5L1168 192.4 1151.4 198 1148.7 190.2 1147.3 190.7 1147.9 192.4 1131.4 198 1128.7 190.2 1127.3 190.7 1127.9 192.4 1112.3 197.7 1109.7 190.2 1108.3 190.7 1108.8 192.1 1092.3 197.7 1089.7 190.2 1088.3 190.7 1089 192.7 1072.3 198.4 1071.6 196.1 1070.4 196.5 1071.1 198.8 1071.1 198.8 1071.9 201.1 1078.9 223 1080.1 222.6 1079.2 219.7 1096.2 213.9 1098.7 221.4 1100.1 220.9 1099.5 218.9 1116 213.3 1118.7 221.4 1120.1 220.9 1119.5 218.9 1135.1 213.6 1137.7 221.4 1139.1 220.9 1138.6 219.2 1155.1 213.6 1157.7 221.4 1159.1 220.9 1158.6 219.2 1174.8 213.7 1175.9 217 1177.1 216.6 1168.6 190.1 z"/>
		<path id="null" fill="#C48B02" stroke="#000000" d="M1476.9,338L1478.1 337.6 1469.6 311.1 1468.4 311.5 1469 313.4 1452.4 319 1449.7 311.2 1448.3 311.7 1448.9 313.4 1432.4 319 1429.7 311.2 1428.3 311.7 1428.9 313.4 1413.3 318.7 1410.7 311.2 1409.3 311.7 1409.8 313.1 1393.3 318.7 1390.7 311.2 1389.3 311.7 1390 313.7 1373.3 319.4 1372.6 317.1 1371.4 317.5 1372.1 319.8 1372.1 319.8 1372.9 322.1 1379.9 344 1381.1 343.6 1380.2 340.7 1397.2 334.9 1399.7 342.4 1401.1 341.9 1400.5 339.9 1417 334.3 1419.7 342.4 1421.1 341.9 1420.5 339.9 1436.1 334.6 1438.7 342.4 1440.1 341.9 1439.6 340.2 1456.1 334.6 1458.7 342.4 1460.1 341.9 1459.6 340.2 1475.8 334.7 z"/>
		<path id="null" fill="#C48B02" stroke="#000000" d="M1360.4,311.5L1361 313.4 1345.1 318.8 1342.6 311.1 1341.4 311.5 1342 313.4 1325.4 319 1322.7 311.2 1321.3 311.7 1321.9 313.4 1305.4 319 1302.7 311.2 1301.3 311.7 1301.9 313.4 1286.3 318.7 1283.7 311.2 1282.3 311.7 1282.8 313.1 1266.3 318.7 1263.7 311.2 1262.3 311.7 1263 313.7 1246.3 319.4 1245.6 317.1 1244.4 317.5 1245.1 319.8 1245.1 319.8 1245.9 322.1 1252.9 344 1254.1 343.6 1253.2 340.7 1270.2 334.9 1272.7 342.4 1274.1 341.9 1273.5 339.9 1290 334.3 1292.7 342.4 1294.1 341.9 1293.5 339.9 1309.1 334.6 1311.7 342.4 1313.1 341.9 1312.6 340.2 1329.1 334.6 1331.7 342.4 1333.1 341.9 1332.6 340.2 1349.1 334.6 1351.9 343 1353.1 342.6 1352.2 340 1367.8 334.7 1368.9 338 1370.1 337.6 1361.6 311.1 z"/>
		<path id="null" fill="#C48B02" stroke="#000000" d="M1234.3,276.5L1234.3 278 1261.7 278 1261.7 276.5 1259.6 276.5 1259.6 259 1261.7 259 1261.7 257.5 1253.8 257.5 1253.8 240.1 1255.3 240.1 1255.3 238.6 1247.4 238.6 1247.4 222.1 1249.2 222.1 1249.3 220.6 1241 220.6 1241 203.1 1242.9 203.1 1242.9 201.6 1234.6 201.6 1234.6 184.1 1236.5 184.1 1236.6 182.8 1209.7 183.2 1209.7 184.5 1212.2 184.5 1212.2 201.6 1210.5 201.6 1210.5 203.1 1218.6 203.1 1218.6 220.6 1216.8 220.6 1216.8 222 1225 222 1225 238.6 1222.9 238.6 1222.9 240 1231.4 240 1231.4 257.5 1229.3 257.5 1229.3 259 1237.2 259 1237.2 276.5 z"/>
	</g>
</g>

</svg>
